<?xml version="1.0" standalone="no"?>
<!DOCTYPE svg PUBLIC "-//W3C//DTD SVG 1.1//EN" "http://www.w3.org/Graphics/SVG/1.1/DTD/svg11.dtd" >
<!--
2013-9-30: Created.
-->
<svg>
<metadata>
Created by iconfont
</metadata>
<defs>

<font id="iconfont" horiz-adv-x="1024" >
  <font-face
    font-family="iconfont"
    font-weight="500"
    font-stretch="normal"
    units-per-em="1024"
    ascent="896"
    descent="-128"
  />
    <missing-glyph />
    
    <glyph glyph-name="freeze" unicode="&#58955;" d="M725.333 384c-72.533 0-128-55.467-128-128v-85.333h42.667v85.333c0 46.933 38.4 85.333 85.333 85.333s85.333-38.4 85.333-85.333v-85.333h42.667v85.333c0 72.533-55.467 128-128 128zM896 213.333h-341.333c-21.333 0-42.667-21.333-42.667-42.667v-170.667c0-21.333 21.333-42.667 42.667-42.667h341.333c21.333 0 42.667 21.333 42.667 42.667v170.667c0 21.333-21.333 42.667-42.667 42.667zM896 0h-341.333v170.667h341.333v-170.667zM426.667 768c81.067 0 149.333-68.267 149.333-149.333s-68.267-149.333-149.333-149.333-149.333 68.267-149.333 149.333 68.267 149.333 149.333 149.333M426.667 810.667c-106.667 0-192-85.333-192-192s85.333-192 192-192 192 85.333 192 192-85.333 192-192 192v0zM610.133 413.867c-21.333 25.6-46.933 38.4-76.8 51.2-12.8 4.267-17.067 17.067-12.8 29.867s17.067 17.067 29.867 12.8c34.133-17.067 68.267-38.4 93.867-64 8.533-8.533 8.533-21.333 0-29.867s-25.6-8.533-34.133 0zM418.133 29.867c-162.133 0-290.133 89.6-290.133 204.8 0 119.467 68.267 226.133 174.933 273.067 12.8 4.267 21.333 0 29.867-12.8 4.267-12.8 0-21.333-12.8-29.867-89.6-38.4-149.333-132.267-149.333-230.4 0-89.6 110.933-162.133 247.467-162.133 12.8 0 21.333-8.533 21.333-21.333s-8.533-21.333-21.333-21.333z"  horiz-adv-x="1024" />

    
    <glyph glyph-name="thaw" unicode="&#58960;" d="M896 213.333h-256v64c0 42.667 46.933 85.333 93.867 85.333h4.267c38.4 0 72.533-21.333 81.067-55.467 4.267-12.8 17.067-17.067 25.6-12.8 12.8 4.267 17.067 17.067 12.8 25.6-17.067 51.2-68.267 85.333-123.733 85.333h-4.267c-72.533 0-136.533-59.733-136.533-128l-0-64h-42.667c-21.333 0-42.667-21.333-42.667-42.667v-170.667c0-21.333 21.333-42.667 42.667-42.667h341.333c21.333 0 42.667 21.333 42.667 42.667v170.667c4.267 21.333-17.067 42.667-38.4 42.667zM896 0h-341.333v170.667h341.333v-170.667zM640 443.733c-21.333 21.333-42.667 38.4-68.267 51.2 29.867 34.133 46.933 76.8 46.933 123.733 0 106.667-85.333 192-192 192s-192-85.333-192-192c0-46.933 17.067-89.6 46.933-123.733-93.867-51.2-153.6-153.6-153.6-260.267 0-115.2 128-204.8 290.133-204.8 12.8 0 21.333 8.533 21.333 21.333s-8.533 21.333-21.333 21.333c-136.533 0-247.467 72.533-247.467 162.133 0 98.133 55.467 187.733 145.067 230.4 29.867-25.6 68.267-38.4 110.933-38.4s81.067 12.8 110.933 38.4c25.6-12.8 51.2-29.867 72.533-51.2 4.267-4.267 21.333-17.067 34.133-4.267 12.8 12.8 4.267 25.6-4.267 34.133zM277.333 618.667c0 81.067 68.267 149.333 149.333 149.333s149.333-68.267 149.333-149.333-68.267-149.333-149.333-149.333-149.333 68.267-149.333 149.333z"  horiz-adv-x="1024" />

    
    <glyph glyph-name="yonghushanchu" unicode="&#58913;" d="M637.402453-128l-554.666667 0c-23.545173 0-42.666667 19.06688-42.666667 42.666667 0 258.7648 229.690027 469.326507 512 469.326507 23.552 0 42.666667-19.114667 42.666667-42.666667 0-23.59296-19.114667-42.666667-42.666667-42.666667-219.25888 0-400.370347-149.579093-424.011093-341.326507l509.344427 0c23.59296 0 42.666667-19.080533 42.666667-42.666667C680.06912-108.93312 660.995413-128 637.402453-128zM552.06912 298.65984c-164.693333 0-298.666667 133.973333-298.666667 298.666667s133.973333 298.666667 298.666667 298.666667c164.652373 0 298.666667-133.973333 298.666667-298.666667S716.721493 298.65984 552.06912 298.65984zM552.06912 810.65984c-117.61664 0-213.333333-95.70304-213.333333-213.333333 0-117.61664 95.716693-213.333333 213.333333-213.333333 117.623467 0 213.333333 95.716693 213.333333 213.333333C765.402453 714.9568 669.699413 810.65984 552.06912 810.65984zM911.076693 7.31136 730.053973 188.33408c-16.67072 16.684373-16.67072 43.66336 0 60.347733s43.66336 16.677547 60.340907 0L971.4176 67.652267c16.67072-16.677547 16.67072-43.656533 0-60.340907C954.733227-9.35936 927.761067-9.373013 911.076693 7.31136zM730.0608 7.31136c-16.67072 16.684373-16.67072 43.66336 0 60.340907l181.029547 181.029547c16.67072 16.677547 43.66336 16.677547 60.340907 0 16.67072-16.684373 16.67072-43.66336 0-60.347733L790.401707 7.31136C773.717333-9.35936 746.73152-9.373013 730.0608 7.31136z"  horiz-adv-x="1024" />

    
    <glyph glyph-name="settings" unicode="&#58934;" d="M423.12 340.503c-10.335 75.084 42.153 144.328 117.236 154.663 17.643 2.429 34.926 1.273 51.235-2.714-28.93 25.606-68.376 38.99-109.652 33.308-75.082-10.335-127.571-79.58-117.236-154.662 7.906-57.44 50.328-101.541 103.427-114.523-23.696 20.973-40.356 50.121-45.010 83.928zM304.659 765.758l67.23-48.459c19.972-14.539 44.992-23.259 72.050-23.259 0.424 0 0.847 0.002 1.27 0.006l-0.064-0.001c10.154 0.099 20.086 1.832 29.793 4.365-14.552 3.824-28.456 9.982-40.812 18.889l-67.23 48.459c-8.759 6.376-19.732 10.201-31.599 10.201-10.135 0-19.618-2.79-27.724-7.644l-3.602-2.136c0.224-0.155 0.468-0.263 0.688-0.422zM451.214 75.383c-27.7-0.281-53.125-9.787-73.408-25.587l-65.549-50.098c-0.659-0.505-1.385-0.876-2.063-1.347l4.924-2.779c7.64-4.389 16.798-6.978 26.561-6.978 12.399 0 23.823 4.176 32.942 11.198l66.248 50.634c12.768 9.759 27.364 16.453 42.706 20.526-10.517 2.8-21.336 4.54-32.36 4.432zM943.15 409.876c-0.223 22.039-13.605 40.898-32.653 49.115l-75.289 32.022c-29.758 12.887-52.966 36.213-65.39 65.252l7.273-14.296c-10.804 18.001-17.194 39.721-17.194 62.934 0 4.484 0.238 8.912 0.703 13.272l8.299 80.169c0.183 1.668 0.287 3.601 0.287 5.56 0 20.083-10.955 37.608-27.216 46.924l-37.853 21.352c-18.11 10.22-40.349 8.998-57.313-2.78l32.665-18.434c16.525-9.455 27.48-26.98 27.48-47.063 0-1.958-0.104-3.892-0.307-5.796l-8.325-80.474c-2.724-26.341 3.072-52.861 16.538-75.664v-0.001c16.395-27.421 42.372-47.674 73.206-56.286l59.973-26.61c19.373-8.398 32.714-27.287 32.88-49.311l0.422-43.008c0.002-0.157 0.003-0.344 0.003-0.53 0-22.014-13.163-40.954-32.048-49.378l-73.797-32.253c-29.678-13.201-52.683-36.919-64.642-66.308l6.85 14.111c-9.98-17.373-15.865-38.198-15.865-60.396 0-5.248 0.329-10.42 0.968-15.495l10.021-81.997c0.254-1.966 0.398-4.241 0.398-6.549 0-19.711-10.553-36.957-26.317-46.397l-33.274-19.64c17.307-12.072 40.084-13.081 58.345-2.299l36.921 21.803c16.010 9.576 26.563 26.822 26.563 46.532 0 2.309-0.145 4.583-0.426 6.816l-10.056 82.336c-0.577 4.471-0.906 9.642-0.906 14.891 0 50.059 29.932 93.127 72.876 112.282l74.234 32.427c19.228 8.561 32.391 27.5 32.391 49.515 0 0.186-0.001 0.372-0.003 0.558l-0.424 43.096zM341.675-23.954c-12.027 0.003-23.307 3.201-33.037 8.794l-36.832 20.801c-20.365 11.6-33.875 33.165-33.875 57.885 0 2.726 0.164 5.414 0.484 8.054l9.495 81.821c2.692 23.354-2.395 47.371-14.351 67.596-11.992 20.312-30.608 36.394-52.44 45.292l-76.144 31.045c-24.892 10.173-41.149 34.104-41.428 61.006l-0.42 42.704c-0.002 0.202-0.003 0.441-0.003 0.68 0 27.012 16.101 50.263 39.228 60.681l76.896 33.993c21.396 9.457 39.488 25.888 50.972 46.236 11.676 20.679 16.327 45.012 13.092 68.557l-10.942 79.85c-3.671 26.639 8.932 52.685 32.111 66.355l36.97 21.833c22.707 13.443 51.305 12.148 72.771-3.321l67.229-48.438c19.019-13.722 42.809-20.697 65.813-20.889 23.756 0.227 47.232 8.303 66.11 22.724l63.768 48.717c11.063 8.543 25.125 13.693 40.391 13.693 12.033 0 23.318-3.2 33.052-8.795l37.277-21.050c23.092-13.005 36.236-38.456 33.492-64.817l-8.339-80.707c-2.43-23.51 2.849-47.652 14.859-68.016v0.017c12.166-20.609 30.223-36.429 52.249-45.798l75.060-31.936c24.35-10.366 40.24-34.157 40.502-60.621l0.42-43.124c0.002-0.21 0.004-0.459 0.004-0.707 0-27.107-16.222-50.426-39.488-60.778l-73.875-32.279c-21.78-9.527-40.222-26.186-51.899-46.864-11.502-20.381-16.274-44.382-13.425-67.613l10.086-82.594c3.199-26.273-9.457-51.934-32.234-65.394l-36.936-21.797c-23.144-13.722-52.074-12.148-73.661 3.95l-64.869 48.438c-19.001 14.177-42.652 21.57-66.233 21.623-23.389-0.227-46.515-8.181-65.097-22.375l-66.39-50.745c-11.071-8.54-25.14-13.687-40.411-13.687-0.001 0-0.002 0-0.003 0zM335.294 763.426c-0.012 0-0.026 0-0.040 0-7.769 0-15.037-2.144-21.245-5.873l-36.801-21.729c-14.439-8.53-22.304-24.77-20.015-41.376l10.942-79.867c3.968-28.93-1.748-58.856-16.1-84.272-14.106-25.015-36.359-45.204-62.649-56.829l-76.476-33.824c-14.682-6.607-24.719-21.108-24.719-37.952 0-0.146 0.001-0.293 0.002-0.439l0.42-42.682c0.175-16.763 10.314-31.709 25.836-38.037l76.144-31.045c26.867-10.977 49.801-30.766 64.538-55.762 14.718-24.892 20.994-54.451 17.672-83.223l-9.527-82.139c-0.178-1.443-0.28-3.113-0.28-4.807 0-15.418 8.42-28.87 20.912-36.008l37.366-21.083c14.508-8.146 32.373-6.922 45.606 3.181l66.39 50.727c22.847 17.462 51.287 27.234 80.060 27.531h1.293c28.72 0 57.143-9.422 80.181-26.622l64.869-48.421c6.831-5.145 15.459-8.24 24.81-8.24 7.787 0 15.074 2.147 21.299 5.881l36.748 21.693c14.194 8.391 22.095 24.402 20.085 40.781l-10.086 82.594c-3.478 28.51 2.377 57.964 16.501 82.961 14.333 25.398 36.936 45.816 63.681 57.527l73.451 32.111c14.765 6.557 24.877 21.092 24.877 37.988 0 0.158-0.001 0.316-0.003 0.474l-0.42 43.1c-0.158 16.501-10.069 31.342-25.259 37.793l-75.060 31.936c-26.972 11.485-49.102 30.888-63.995 56.112v0.017c-14.736 24.926-21.204 54.521-18.214 83.328l8.339 80.707c1.713 16.431-6.485 32.286-20.872 40.415l-37.6 21.221c-14.526 8.163-32.391 6.922-45.606-3.181l-63.768-48.717c-23.144-17.672-51.934-27.566-81.073-27.864-29.227-0.455-57.388 8.811-80.707 25.626l-67.229 48.438c-6.727 4.907-15.159 7.851-24.278 7.851zM509.625 234.107c-82.576 0-149.771 67.195-149.771 149.771s67.195 149.753 149.771 149.753 149.753-67.176 149.753-149.753-67.177-149.771-149.753-149.771zM509.625 508.565c-68.767 0-124.704-55.937-124.704-124.687 0-68.767 55.937-124.704 124.704-124.704 68.75 0 124.687 55.937 124.687 124.704 0 68.75-55.937 124.687-124.687 124.687z"  horiz-adv-x="1024" />

    
    <glyph glyph-name="MDpeise" unicode="&#58923;" d="M0 896h511.148087V384H0zM511.148087 896h511.148086V384H511.148087zM0 384h511.148087v-512H0zM511.148087 384h511.148086v-512H511.148087z"  horiz-adv-x="1024" />

    
    <glyph glyph-name="jiechu" unicode="&#58968;" d="M507.904 98.816c-29.696 0-53.76 24.576-53.76 55.296v55.296c0 30.208 24.064 55.296 53.76 55.296s53.76-24.576 53.76-55.296v-55.296c0-30.72-24.064-55.296-53.76-55.296z m334.336 242.688c0 30.208-24.576 54.784-55.296 54.784H236.544c-30.208 0-55.296-24.576-55.296-54.784v-328.192c0-30.208 24.576-54.784 55.296-54.784h550.4c30.208 0 55.296 24.576 55.296 54.784V341.504z m-27.136-465.408H209.408c-60.928 0-110.08 49.152-110.08 110.08v384c0 51.2 35.328 93.696 82.432 105.984V562.176C181.76 744.448 329.728 891.904 512 891.904c130.56 0 242.688-75.776 296.448-184.832 3.584-6.144 6.656-13.312 6.656-20.992 0-22.528-18.432-40.96-41.472-40.96-14.848 0-27.648 8.704-34.816 20.48l-1.024-0.512c-38.912 85.504-124.928 144.896-225.28 144.896-136.704 0-247.808-110.592-247.808-247.296v-82.432h550.4c60.928 0 110.08-49.152 110.08-110.08v-384.512c0-60.416-49.664-109.568-110.08-109.568z"  horiz-adv-x="1024" />

    
    <glyph glyph-name="gongxiangwenjianjia" unicode="&#58961;" d="M903.5 697H484.2l-83.9 84.9H120.7c-30.9 0-55.9-25.4-55.9-56.6v-679.2c0-31.3 25-56.6 55.9-56.6h782.8c30.9 0 55.9 25.3 55.9 56.6V640.4c0 31.2-25 56.6-55.9 56.6zM489.2 267.8c-16.6-33.9-51.6-57.3-92.1-57.3-56.5 0-102.2 45.4-102.2 101.5s45.8 101.5 102.2 101.5c31 0 58.8-13.7 77.5-35.3l58.5 43.5c-7 10.6-11 23.3-11 36.9 0 37.4 30.5 67.7 68.2 67.7 37.6 0 68.2-30.3 68.2-67.7 0-37.4-30.5-67.7-68.2-67.7-15.7 0-30.1 5.3-41.7 14.1l-61.1-45.5c7.6-14.2 11.9-30.4 11.9-47.5 0-7.9-0.9-15.5-2.6-22.9l60.9-24.2c14.2 21.6 38.7 35.8 66.6 35.8 43.9 0 79.5-35.3 79.5-78.9 0-43.6-35.6-78.9-79.5-78.9s-79.5 35.3-79.5 78.9c0 7.9 1.2 15.5 3.3 22.6l-58.9 23.4z"  horiz-adv-x="1024" />

    
    <glyph glyph-name="wenjianjiayigongxiang" unicode="&#58973;" d="M889.7 698.4H477.3l-82.5 83.5H119.9c-30.4 0-55-24.9-55-55.7v-667.9c0-30.8 24.6-55.7 55-55.7h769.8c30.4 0 55 24.9 55 55.7V642.7c0 30.8-24.6 55.7-55 55.7zM147.4 475.8h714.8v-389.6H147.4zM862.2 559.3H147.4V698.4h213.3l82.4-83.5h419.1zM819 128.3m-176 0a176 176 0 1 1 352 0 176 176 0 1 1-352 0ZM800.8 93.3c-9.2-17.8-28.5-30.1-50.9-30.1-31.2 0-56.6 23.8-56.6 53.2s25.3 53.2 56.6 53.2c17.1 0 32.5-7.2 42.9-18.5l32.3 22.8c-3.9 5.6-6.1 12.2-6.1 19.4 0 19.6 16.9 35.5 37.7 35.5s37.7-15.9 37.7-35.5-16.9-35.5-37.7-35.5c-8.7 0-16.7 2.8-23 7.4l-33.8-23.9c4.2-7.4 6.6-15.9 6.6-24.9 0-4.1-0.5-8.2-1.4-12l33.7-12.7c7.9 11.3 21.4 18.8 36.9 18.8 24.3 0 44-18.5 44-41.4s-19.7-41.4-44-41.4-44 18.5-44 41.4c0 4.1 0.6 8.1 1.8 11.9l-32.7 12.3z"  horiz-adv-x="1024" />

    
    <glyph glyph-name="wenjianjiaweigongxiang" unicode="&#58974;" d="M904.4 695.9H484.7l-83.9 85H120.9c-30.9 0-56-25.4-56-56.7v-679.8c0-31.3 25-56.7 56-56.7h783.5c30.9 0 56 25.4 56 56.7V639.3c0 31.2-25.1 56.6-56 56.6zM148.9 469.3h727.5v-396.6H148.9zM876.4 554.3H148.9V695.9h217l84-84.9h426.5z"  horiz-adv-x="1024" />

    
    <glyph glyph-name="wailian" unicode="&#58965;" d="M339.2 448l364.8 160-19.2 57.6-364.8-160zM320 288l358.4-179.2 25.6 51.2-358.4 179.2zM230.4 243.2c-89.6 0-166.4 76.8-166.4 166.4s76.8 166.4 166.4 166.4 166.4-76.8 166.4-166.4-76.8-166.4-166.4-166.4zM230.4 307.2c57.6 0 102.4 44.8 102.4 102.4s-44.8 102.4-102.4 102.4-102.4-44.8-102.4-102.4 44.8-102.4 102.4-102.4zM806.4 499.2c-89.6 0-166.4 76.8-166.4 166.4s76.8 166.4 166.4 166.4 166.4-76.8 166.4-166.4-76.8-166.4-166.4-166.4zM806.4 563.2c57.6 0 102.4 44.8 102.4 102.4s-44.8 102.4-102.4 102.4-102.4-44.8-102.4-102.4 44.8-102.4 102.4-102.4zM806.4-76.8c-89.6 0-166.4 76.8-166.4 166.4s76.8 166.4 166.4 166.4 166.4-76.8 166.4-166.4-76.8-166.4-166.4-166.4zM806.4-12.8c57.6 0 102.4 44.8 102.4 102.4s-44.8 102.4-102.4 102.4-102.4-44.8-102.4-102.4 44.8-102.4 102.4-102.4z"  horiz-adv-x="1024" />

    
    <glyph glyph-name="database" unicode="&#59253;" d="M117 287.6v-178.5c1.5-93.7 155.7-169.5 395-169.5s393.4 75.8 395 169.5v178.5h-790zM907 288.3c0-99.4-154.8-180-395-180s-395 80.6-395 180 154.8 180 395 180 395-80.5 395-180zM117 467.6v-158.5c1.5-93.7 155.7-179.5 395-179.5s393.4 85.8 395 179.5v158.5h-790zM907 468.3c0-99.4-154.8-180-395-180s-395 80.6-395 180 154.8 180 395 180 395-80.5 395-180zM117 647.6v-158.5c1.5-93.7 155.7-179.5 395-179.5s393.4 85.8 395 179.5v158.5h-790zM907 648.3c0-99.4-154.8-180-395-180s-395 80.6-395 180 154.8 180 395 180 395-80.5 395-180z"  horiz-adv-x="1024" />

    
    <glyph glyph-name="duankai" unicode="&#58966;" d="M511.908777 563.663719c-8.36457 0-15.145504 5.56219-15.145504 12.423399v111.467598c0 6.86121 6.780933 12.4234 15.145504 12.4234s15.145504-5.56219 15.145503-12.4234v-111.467598c0.001216-6.86121-6.779717-12.4234-15.145503-12.423399zM433.993115 572.795781c-7.244348-4.182893-15.8984-2.756161-19.328396 3.185518l-55.733799 96.533733c-3.431213 5.941679-0.339351 14.149345 6.904997 18.332238 7.244348 4.182893 15.8984 2.756161 19.328397-3.185518l55.733799-96.533733c3.431213-5.942895 0.339351-14.150561-6.904998-18.332238zM590.250147 572.795781c7.244348-4.182893 15.8984-2.756161 19.328397 3.185518l55.733798 96.533733c3.431213 5.941679 0.339351 14.149345-6.904997 18.332238-7.244348 4.182893-15.8984 2.756161-19.328396-3.185518l-55.733799-96.533733c-3.431213-5.942895-0.339351-14.150561 6.904997-18.332238zM433.993115 200.664239c-7.244348 4.182893-15.8984 2.756161-19.328396-3.186735l-55.733799-96.533732c-3.431213-5.941679-0.339351-14.149345 6.904997-18.332238 7.244348-4.182893 15.8984-2.756161 19.328397 3.186734l55.733799 96.533733c3.431213 5.941679 0.339351 14.149345-6.904998 18.332238zM590.250147 200.664239c7.244348 4.182893 15.8984 2.756161 19.328397-3.186735l55.733798-96.533732c3.431213-5.941679 0.339351-14.149345-6.904997-18.332238-7.244348-4.182893-15.8984-2.756161-19.328396 3.186734l-55.733799 96.533733c-3.431213 5.941679-0.339351 14.149345 6.904997 18.332238zM511.908777 66.748407c-8.36457 0-15.145504 5.56219-15.145504 12.423399v111.467598c0 6.86121 6.780933 12.4234 15.145504 12.4234s15.145504-5.56219 15.145503-12.4234v-111.467598c0.001216-6.86121-6.779717-12.4234-15.145503-12.423399zM429.582772 253.775671H299.864429c-73.192726 0-132.73966 59.546934-132.73966 132.73966s59.546934 132.73966 132.73966 132.73966h125.428414v-53.431323H299.864429c-43.731243 0-79.307121-35.575878-79.307121-79.307121s35.575878-79.307121 79.307121-79.307121H429.582772v-53.433755zM723.953125 253.775671H597.354619v53.432539h126.597289c43.726378 0 79.302256 35.575878 79.302256 79.307121s-35.575878 79.307121-79.302256 79.307121H597.344888v53.431322h126.608237c73.186644 0 132.733578-59.546934 132.733578-132.739659S797.139769 253.775671 723.953125 253.775671z"  horiz-adv-x="1024" />

    
    <glyph glyph-name="dongjie" unicode="&#58908;" d="M783.646 543.615h-15.393v45.831c0 120.374-72.498 217.555-184.547 247.537-22.002 6.288-45.871 9.478-70.945 9.478-71.293 0-135.768-26.951-181.553-75.893-45.254-48.483-69.346-112.787-67.855-181.089l-1.26-42.821h-20.217c-72.906 0-132.223-59.313-132.223-132.223v-360.674c0-72.908 59.316-132.223 132.223-132.223h540.248c72.908 0 132.223 59.314 132.223 132.223V411.393c0 72.907-58.633 132.222-130.701 132.222z m-436.682 0l1.258 44.311c0 100.629 69.842 173.667 166.064 173.667 18.715 0 35.191-1.974 48.043-5.82 74.461-18.616 122.574-83.903 122.574-166.326v-45.831H346.964zM192.995 411.393c0 26.95 21.93 48.876 48.881 48.876h540.248c26.951 0 48.879-21.926 48.879-48.876V50.72c0-26.951-21.928-48.879-48.879-48.879H241.876c-26.951 0-48.881 21.928-48.881 48.879V411.393zM471.851 233.014v-92.506c0-22.563 18.352-40.914 40.91-40.914 22.561 0 40.912 18.351 40.912 40.914v92.506c18.383 12.893 30.436 35.607 30.436 58.155 0 40.009-31.34 71.349-71.348 71.349-40.01 0-71.35-31.34-71.35-71.349 0-22.548 12.053-45.263 30.44-58.155z"  horiz-adv-x="1024" />

    
    <glyph glyph-name="guanli_danse" unicode="&#59032;" d="M997.934545 207.127273c-3.723636 22.341818-22.341818 39.098182-42.821818 39.098182-16.756364 0-29.789091 13.032727-29.789091 29.78909 0 3.723636 0 7.447273 3.723637 9.309091 9.309091 22.341818 3.723636 50.269091-18.618182 63.301819l-55.854546 29.78909c-18.618182 7.447273-42.821818 3.723636-57.716363-13.032727-5.585455-7.447273-18.618182-16.756364-22.341818-16.756363s-16.756364 9.309091-26.065455 16.756363c-9.309091 9.309091-22.341818 16.756364-39.098182 16.756364-5.585455 0-13.032727 0-22.341818-7.447273l-55.854545-33.512727c-18.618182-13.032727-26.065455-39.098182-16.756364-63.301818 0-3.723636 3.723636-7.447273 3.723636-9.309091 0-16.756364-16.756364-29.789091-29.789091-29.789091-18.618182 0-39.098182-16.756364-42.821818-39.098182 0 0-5.585455-26.065455-5.585454-46.545455s3.723636-46.545455 3.723636-46.545454c3.723636-22.341818 22.341818-39.098182 44.683636-39.098182 16.756364 0 29.789091-13.032727 29.789091-29.789091 0-3.723636 0-7.447273-3.723636-9.309091-9.309091-22.341818-3.723636-46.545455 18.618182-63.301818l55.854545-29.789091c18.618182-9.309091 44.683636-3.723636 57.716364 13.032727 5.585455 7.447273 18.618182 16.756364 26.065454 16.756364 3.723636 0 16.756364-9.309091 26.065455-16.756364 9.309091-9.309091 22.341818-16.756364 39.098182-16.756363 5.585455 0 13.032727 0 22.341818 7.447273l55.854545 29.78909c18.618182 13.032727 26.065455 39.098182 16.756364 63.301819 0 3.723636-3.723636 7.447273-3.723636 9.309091 0 16.756364 13.032727 29.789091 29.789091 29.78909 22.341818 0 39.098182 16.756364 42.821818 42.821819 3.723636 9.309091 3.723636 29.789091 3.723636 46.545454-3.723636 16.756364-7.447273 35.374545-7.447273 46.545455z m-52.130909-83.781818c-42.821818-3.723636-74.472727-35.374545-74.472727-78.196364 0-9.309091 3.723636-20.48 5.585455-29.789091l-48.407273-26.065455c-3.723636 3.723636-31.650909 33.512727-61.44 33.512728-29.789091 0-57.716364-29.789091-61.44-35.374546l-48.407273 26.065455c3.723636 3.723636 5.585455 16.756364 5.585455 29.789091 0 42.821818-31.650909 76.334545-74.472728 78.196363 0 3.723636-3.723636 22.341818-3.723636 35.374546s3.723636 29.789091 3.723636 35.374545c42.821818 3.723636 74.472727 35.374545 74.472728 78.196364 0 13.032727-5.585455 26.065455-9.309091 29.789091l52.130909 29.789091c3.723636-3.723636 31.650909-33.512727 61.44-33.512728 29.789091 0 57.716364 29.789091 57.716364 33.512728l48.407272-26.065455c-3.723636-7.447273-5.585455-16.756364-5.585454-29.789091 0-42.821818 31.650909-76.334545 74.472727-78.196363 3.723636-13.032727 3.723636-26.065455 3.723636-35.374546 7.447273-9.309091 3.723636-20.48 0-37.236363zM482.210909-27.461818H102.4s-3.723636 0-3.723636 7.447273v67.025454c3.723636 16.756364 35.374545 39.098182 143.36 106.123636 18.618182 13.032727 39.098182 26.065455 61.44 35.374546-9.309091-7.447273 26.065455 16.756364 35.374545 22.341818 39.098182 26.065455 65.163636 59.578182 65.163636 106.123636 0 22.341818-5.585455 42.821818-18.618181 65.163637-5.585455 13.032727-16.756364 22.341818-22.341819 35.374545l-3.723636 7.447273-5.585454 9.309091c-9.309091 13.032727-16.756364 29.789091-26.065455 46.545454-13.032727 29.789091-18.618182 63.301818-18.618182 111.709091 0 107.985455 74.472727 204.8 165.701818 204.8h13.032728c91.229091 0 165.701818-94.952727 165.701818-204.8 0-35.374545-3.723636-63.301818-9.309091-85.643636-3.723636-9.309091 0-22.341818 9.309091-33.512727 9.309091-7.447273 18.618182-9.309091 31.650909-9.309091s18.618182 13.032727 22.341818 22.341818c5.585455 29.789091 9.309091 63.301818 9.309091 102.4C716.8 730.298182 618.123636 858.763636 489.658182 858.763636h-13.032727c-130.327273 0-227.141818-128.465455-227.141819-269.963636 0-59.578182 5.585455-98.676364 22.341819-137.774545 5.585455-16.756364 16.756364-33.512727 29.78909-55.854546 3.723636-7.447273 5.585455-9.309091 9.309091-16.756364 13.032727-20.48 16.756364-22.341818 22.341819-33.512727 5.585455-13.032727 9.309091-22.341818 9.30909-33.512727 0-16.756364-13.032727-33.512727-35.374545-50.269091-9.309091-7.447273-42.821818-26.065455-31.650909-20.48l-33.512727-18.618182-29.789091-14.894545c-130.327273-78.196364-158.254545-102.4-171.287273-145.221818-3.723636-11.170909-3.723636-16.756364-3.723636-24.203637v-59.578182C37.236364-60.974545 67.025455-90.763636 106.123636-90.763636h376.087273c16.756364 0 31.650909 13.032727 31.650909 33.512727 1.861818 16.756364-14.894545 29.789091-31.650909 29.789091zM770.792727 255.534545c52.130909 0 94.952727-42.821818 94.952728-94.952727s-42.821818-94.952727-94.952728-94.952727-94.952727 42.821818-94.952727 94.952727 42.821818 94.952727 94.952727 94.952727z m0-145.221818c26.065455 0 48.407273 22.341818 48.407273 46.545455 0 26.065455-22.341818 50.269091-48.407273 50.269091-18.618182 3.723636-35.374545-7.447273-44.683636-22.341818-9.309091-13.032727-9.309091-33.512727 0-50.269091 9.309091-13.032727 26.065455-24.203636 44.683636-24.203637z"  horiz-adv-x="1024" />

    
    <glyph glyph-name="wenjianjia" unicode="&#58904;" d="M100.045-15.222l-12.39 228.04V718.484l52.054 17.352 294.969 12.39L496.64 646.6s57.011-32.22 64.445-32.22c7.44 0 309.847 14.873 309.847 14.873l34.699-86.758 37.181-64.446-86.753-493.266H100.045zM936.305 535.572v58.563c0 32.312-26.245 58.563-58.563 58.563H526.387v58.557c0 32.312-26.245 58.563-58.562 58.563h-351.36c-32.313 0-58.563-26.246-58.563-58.563v-702.72c0-1.362 0.63-2.514 0.732-3.758h0.835c2.094-29.804 25.518-54.8 57.098-54.8h725.934c27.92 0 52.076 19.764 57.513 47.16l93.706 468.271c7.21 36.285-20.5 70.062-57.415 70.164zM116.465 307.19V681.974a29.235 29.235 0 0 0 29.28 29.281h292.803a29.235 29.235 0 0 0 29.282-29.281v-58.563a29.235 29.235 0 0 1 29.281-29.281h351.36a29.235 29.235 0 0 0 29.281-29.281v-29.282H210.268c-27.924 0-52.075-19.763-57.513-47.16l-36.29-181.217z m726.348-275.548c-2.923-13.486-14.95-23.107-28.753-23.107H152.12c-18.508 0-32.312 16.835-28.759 35.031l81.567 410.025a29.117 29.117 0 0 0 28.55 23.424h669.885c18.826 0 32.84-17.357 28.861-35.656l-89.41-409.717z"  horiz-adv-x="1024" />

    
    <glyph glyph-name="system-extension" unicode="&#58969;" d="M999.424 454.144L972.8 552.448a76.8 76.8 0 0 1-62.464 57.344l-74.752 11.776-31.744 40.96 5.632 73.728A76.8 76.8 0 0 1 768 810.496L674.816 858.112a76.8 76.8 0 0 1-90.112-15.36l-51.2-51.2h-51.2l-51.2 51.2A76.8 76.8 0 0 1 342.016 857.6l-90.112-47.616a76.8 76.8 0 0 1-40.96-73.728l5.632-74.24-37.376-45.056-66.56-6.656A76.8 76.8 0 0 1 45.056 549.376l-21.504-102.4a76.8 76.8 0 0 1 34.304-80.384l59.904-38.4 13.312-51.2-40.448-61.44a76.8 76.8 0 0 1 6.144-92.16l68.608-80.384a76.8 76.8 0 0 1 83.456-22.528l68.096 23.552 46.592-22.528 25.6-69.632a76.8 76.8 0 0 1 72.192-51.2h102.4a76.8 76.8 0 0 1 73.216 51.2l22.528 73.728 51.2 22.528 71.168-22.528a76.8 76.8 0 0 1 88.576 26.624l58.88 83.456a76.8 76.8 0 0 1 0 85.504l-36.352 57.856 12.8 51.2 60.928 38.912a76.8 76.8 0 0 1 32.768 84.992z m-161.28-74.24l-27.648-114.688L864.256 179.20000000000005l-58.88-83.456-96.768 32.256-111.616-47.616-32.768-102.4H460.8L424.96 76.79999999999995l-102.4 51.2-98.304-34.304L153.6 173.56799999999998l58.88 90.112-28.16 113.152-84.992 53.76 21.504 102.4 98.304 9.728 76.8 93.184L287.744 742.4l90.112 47.616 72.192-76.8h117.76l73.728 76.8 93.184-47.616-8.192-102.4 68.608-88.576 102.4-16.384 27.136-99.84zM512 581.6320000000001A197.632 197.632 0 1 1 709.632 384 197.632 197.632 0 0 1 512 581.6320000000001z m0-344.064A146.432 146.432 0 1 0 658.432 384 146.432 146.432 0 0 0 512 237.56799999999998z"  horiz-adv-x="1024" />

    
    <glyph glyph-name="document" unicode="&#59098;" d="M822.705231-70.56410232999997H225.358769C164.155077-70.56410232999997 157.53846199-31.730871330000014 157.53846199-15.031795330000023V759.89989767C157.53846199 799.36328167 189.873231 835.28205167 225.358769 835.28205167h487.148308L866.46153801 671.56020467V-15.031795330000023c0-27.29353801 0-55.532308-43.75630701-55.532307zM225.358769 795.89743567C214.17353801 795.89743567 196.923077 780.45866667 196.923077 759.89989767V-15.031795330000023c0-7.168 0-16.147692 28.435692-16.147692h597.346462l3.977846 0.078769c0.39384599 4.844308 0.39384599 12.288 0.393846 16.068923V655.96389767L695.492923 795.89743567H225.358769zM846.532923 638.35897467h-174.040615l17.092923 177.152 39.227077-3.780923L715.89415399 677.74358967h114.176l9.216 9.373539 28.04184601-27.648zM315.076923 520.20512867h393.846154v-39.384616H315.076923zM315.076923 362.66666667000004h393.846154v-39.384615H315.076923z"  horiz-adv-x="1024" />

    
    <glyph glyph-name="lizhi" unicode="&#58880;" d="M115.953-43.384v55.223c0 187.834 144.97 342.614 329.618 360.024l-0.05 0.048h0.493c11.329 1.081 22.803 1.669 34.377 1.669 1.718 0 3.432-0.101 5.2-0.148 40.804 3.187 102.597 12.8 134.866 41.589l15.845 12.261c61.742 48.257 97.151 120.205 97.151 197.544 0 138.496-113.582 251.197-253.158 251.197-139.58 0-253.162-112.701-253.162-251.197 0-77.34 35.408-149.287 97.202-197.544l15.793-12.261-18.639-7.404C157.005 342.387 50.677 187.02 50.677 11.839v-87.542c0-17.801 14.617-32.319 32.663-32.319h476.694a326.728 326.728 0 0 0-39.427 64.639H115.953v-0.001z m176.407 668.21c0 102.844 84.356 186.558 187.935 186.558 103.673 0 187.931-83.714 187.931-186.558 0-102.892-84.258-186.658-187.931-186.658-103.578 0-187.935 83.766-187.935 186.658zM733.209 331.45c110.198 0 199.848-89.453 199.848-199.359 0-110.198-89.649-199.848-199.848-199.848-109.856 0-199.312 89.649-199.312 199.848 0 109.906 89.456 199.359 199.312 199.359m0 40.266c-132.271 0-239.576-107.404-239.576-239.625 0-132.465 107.306-240.113 239.576-240.113 132.464 0 240.114 107.648 240.114 240.113 0 132.221-107.65 239.625-240.114 239.625zM845.32 43.865c6.816-6.424 6.816-17.363 0-24.082-3.138-3.235-7.601-5.002-12.016-5.002-4.364 0-8.779 1.767-12.065 5.002l-88.03 87.935-87.791-87.935c-3.283-3.235-7.746-5.002-12.061-5.002a17.104 17.104 0 0 0-12.069 5.002c-6.864 6.719-6.864 17.658 0 24.082l87.888 87.932-87.888 87.935c-6.864 6.475-6.864 17.41 0 24.081 6.772 6.768 17.659 6.768 24.13 0l87.791-87.885 88.03 87.885c6.719 6.768 17.312 6.768 24.081 0 6.816-6.671 6.816-17.606 0-24.081l-87.934-87.935 87.934-87.932z"  horiz-adv-x="1024" />

    
    <glyph glyph-name="drxx74" unicode="&#59137;" d="M512 664.418462a729.796923 729.796923 0 0 0-109.883077-55.926154A482.067692 482.067692 0 0 0 275.692308 577.378462v-239.852308c0-115.396923 167.778462-247.335385 236.307692-247.335385s236.307692 131.938462 236.307692 247.335385V577.378462a476.553846 476.553846 0 0 0-126.030769 31.113846A719.163077 719.163077 0 0 0 512 664.418462z m176.049231-218.584616L496.246154 226.46153800000002l-125.636923 105.944616 39.384615 45.292308 78.769231-68.135385 152.812308 175.261538zM512 896a512 512 0 1 1 512-512A512 512 0 0 1 512 896z m0-866.461538c-103.581538 0-296.172308 157.538462-296.172308 306.806153V634.4861539999999h29.538462a415.507692 415.507692 0 0 1 134.301538 29.144615 584.467692 584.467692 0 0 1 114.609231 60.652308L512 738.461538l17.723077-12.603076a581.316923 581.316923 0 0 1 115.003077-62.227693 415.901538 415.901538 0 0 1 133.907692-28.750769h29.538462v-296.96C808.172308 187.07692299999997 615.581538 29.53846199999998 512 29.53846199999998z"  horiz-adv-x="1024" />

    
    <glyph glyph-name="drxx10" unicode="&#59158;" d="M144.327633 207.67246999999998c78.367114 29.169981 120.598281 43.537285 135.83633 48.326387a133.224093 133.224093 0 0 1 39.61893 17.850287 87.074571 87.074571 0 0 1 18.721032 15.23805v2.612237a63.564437 63.564437 0 0 0-4.353728 20.027151 43.537285 43.537285 0 0 0 0 10.884322l-17.414914 16.108795a117.550671 117.550671 0 0 0-28.299236 40.054303c-4.353729 10.448948-8.707457 20.462524-12.19044 31.346845v7.836712a150.639007 150.639007 0 0 0-22.204015 24.816252 144.543787 144.543787 0 0 0-20.897897 46.584896A154.992736 154.992736 0 0 0 225.742356 553.358516 167.618549 167.618549 0 0 0 234.449813 591.235955a130.611856 130.611856 0 0 0 7.401339 17.850287A551.182033 551.182033 0 0 0 246.640253 678.310525a519.835188 519.835188 0 0 0 13.061186 70.530403h-8.707457a174.149142 174.149142 0 0 1-32.652964-3.482983 145.414533 145.414533 0 0 1-33.088337-10.013576 179.373616 179.373616 0 0 1-32.652964-20.462524 130.611856 130.611856 0 0 1-29.169981-33.088337 177.632124 177.632124 0 0 1-21.33327-48.326387 339.155453 339.155453 0 0 1-10.013576-50.938623 410.556601 410.556601 0 0 1-2.612237-56.598471 63.99981 63.99981 0 0 1-12.19044-33.088337 66.612047 66.612047 0 0 1 0-22.639389 68.788911 68.788911 0 0 1 8.707457-19.156405 78.367114 78.367114 0 0 1 8.707457-10.448949 36.57132 36.57132 0 0 1 10.013576-5.224474l6.530593-22.639388c2.612237-6.530593 4.789101-12.625813 7.836711-19.156406a43.537285 43.537285 0 0 1 9.578203-14.367304 227.26463 227.26463 0 0 0 20.897897-20.027151 39.61893 39.61893 0 0 0 10.448948-27.42849v-20.462524a54.421607 54.421607 0 0 0-3.04761-18.721033 57.90459 57.90459 0 0 0-10.884321-17.850287 105.360231 105.360231 0 0 0-22.639388-18.721033 155.863482 155.863482 0 0 0-43.537286-19.156405c-11.319694-3.04761-50.503251-17.414914-77.060995-26.993117V25.25124500000004h3.918356c0 10.884321 2.612237 23.074761 4.789101 39.183556V68.78853000000004a151.509753 151.509753 0 0 0 50.067878 96.652774A236.842833 236.842833 0 0 0 138.667786 205.93097899999998h5.659847z m834.174388 29.169982a378.33901 378.33901 0 0 0-37.442066 12.625812 110.149332 110.149332 0 0 0-29.605354 18.721033 66.176674 66.176674 0 0 0-16.108795 21.768643 70.965775 70.965775 0 0 0-5.224475 23.074761 90.992926 90.992926 0 0 0 5.224475 37.442065 38.748184 38.748184 0 0 0 6.965965 10.884322 46.149523 46.149523 0 0 0 10.013576 8.272084l11.319694 10.013576a43.537285 43.537285 0 0 1 10.013576 14.802677 141.496178 141.496178 0 0 1 7.836711 18.721032c0 7.401339 4.353729 15.23805 6.09522 23.074762a37.877438 37.877438 0 0 1 13.496559 7.836711 57.90459 57.90459 0 0 1 9.578202 14.802677 78.367114 78.367114 0 0 1 6.530593 24.816253 77.060995 77.060995 0 0 1 0 20.027151 79.237859 79.237859 0 0 1-4.789101 13.061186 16.979541 16.979541 0 0 1-6.530593 9.14283 386.175721 386.175721 0 0 1-3.482983 59.210708 379.209756 379.209756 0 0 1-11.755067 53.550861A187.210327 187.210327 0 0 1 922.338923 690.500965a99.265011 99.265011 0 0 1-20.027152 20.462524 187.6457 187.6457 0 0 1-62.258318 31.782219 139.319313 139.319313 0 0 1-37.877438 5.224474h-17.414914a441.468074 441.468074 0 0 0 13.496558-65.741301 557.277253 557.277253 0 0 0 5.224474-66.176674 142.366923 142.366923 0 0 0 15.673423-43.537285 164.135566 164.135566 0 0 0 0-48.76176 191.128683 191.128683 0 0 0-14.367304-53.550861 127.128873 127.128873 0 0 0-33.52371-43.537285l-3.04761-9.578203v-2.612237q-6.09522-15.673423-13.061185-31.346846a130.611856 130.611856 0 0 0-40.489676-53.115488v-19.156405a53.986234 53.986234 0 0 0-5.659847-24.38088 98.829638 98.829638 0 0 1 23.510134-13.931931 283.427728 283.427728 0 0 1 43.537286-14.802677 312.162336 312.162336 0 0 0 43.537285-16.979542l43.537285-20.027151 24.816253-10.884321a234.665968 234.665968 0 0 0 60.081454-35.265202 158.911092 158.911092 0 0 0 46.149522-71.401148 261.223712 261.223712 0 0 0 9.578203-51.809369 80.108605 80.108605 0 0 0 2.612237-21.768643h2.612238v189.822564a460.624479 460.624479 0 0 1-43.537286 17.414915zM959.780988 76.18986800000005a95.782028 95.782028 0 0 1-28.734608 43.537286 203.754496 203.754496 0 0 1-46.149523 26.993117c-16.979541 6.965966-91.863672 43.537285-110.584705 46.584895a455.400005 455.400005 0 0 0-51.809369 17.850287 141.93155 141.93155 0 0 0-40.489676 25.686999 87.074571 87.074571 0 0 0-21.768642 30.040726 87.074571 87.074571 0 0 0-7.401339 31.346846 124.081263 124.081263 0 0 0 8.272084 52.244742 48.326387 48.326387 0 0 0 9.578203 14.802677 84.026961 84.026961 0 0 0 13.061186 11.319695 123.210518 123.210518 0 0 1 16.108795 13.931931 70.965775 70.965775 0 0 1 13.931932 19.591778c3.918356 8.707457 7.401339 17.414914 10.884321 26.122372s5.659847 20.897897 8.272084 31.346845a43.537285 43.537285 0 0 1 15.23805 11.319694 71.836521 71.836521 0 0 1 13.931931 20.027152 112.326196 112.326196 0 0 1 8.707457 33.959082 82.720842 82.720842 0 0 1 0 27.42849 75.319504 75.319504 0 0 1-6.09522 18.28566 23.945507 23.945507 0 0 1-9.142829 12.625813 508.080121 508.080121 0 0 1-4.789102 81.414723 391.835569 391.835569 0 0 1-16.544168 73.578013 235.101341 235.101341 0 0 1-35.265201 71.836521 140.625432 140.625432 0 0 1-27.863863 27.863862 201.142259 201.142259 0 0 1-38.312811 25.251626 309.114726 309.114726 0 0 1-47.020268 17.850287 191.564056 191.564056 0 0 1-52.244743 6.965965 265.142068 265.142068 0 0 1-43.537285-4.353728 191.128683 191.128683 0 0 1-43.537286-13.931931A202.88375 202.88375 0 0 1 356.354213 804.13328a229.441494 229.441494 0 0 1-28.734609-66.176674A522.447425 522.447425 0 0 1 312.816927 591.235955a77.060995 77.060995 0 0 1-11.319694-21.33327 111.890823 111.890823 0 0 1-6.965966-22.204016 79.237859 79.237859 0 0 1 3.482983-30.911472 80.543978 80.543978 0 0 1 11.319694-26.557744 114.503061 114.503061 0 0 1 12.19044-14.367305 40.054303 40.054303 0 0 1 13.496559-6.965965l9.578202-31.782219c3.04761-8.707457 6.530593-17.414914 10.013576-25.686998a59.646081 59.646081 0 0 1 13.496559-20.027151q15.23805-13.061186 28.734608-27.42849a57.90459 57.90459 0 0 0 14.802677-37.442066v-28.734608a87.074571 87.074571 0 0 0-4.353729-25.686998 87.074571 87.074571 0 0 0-15.238049-24.38088 142.802296 142.802296 0 0 0-30.4761-25.251626 181.115107 181.115107 0 0 0-57.033844-26.557744c-22.204016-6.09522-117.115298-41.360421-137.577822-49.197132a171.101532 171.101532 0 0 1-53.550861-30.040727 94.911282 94.911282 0 0 1-28.299235-57.033844 229.876867 229.876867 0 0 1-3.918356-78.367114 83.591588 83.591588 0 0 1 15.23805-49.632505 190.257937 190.257937 0 0 1 49.197132-16.979541 1984.429468 1984.429468 0 0 1 396.62467-40.925049 1312.213782 1312.213782 0 0 1 386.175722 53.115489 66.176674 66.176674 0 0 1 26.993116 14.802677 97.523519 97.523519 0 0 1 9.578203 32.652964 314.339201 314.339201 0 0 1 3.04761 45.714149c0 15.673423 0 3.04761-2.176864 18.721033a194.176293 194.176293 0 0 1-6.965966 39.183557z m-369.631553-97.523519a157.1696 157.1696 0 0 0-16.544168-18.28566 130.611856 130.611856 0 0 0-19.156406-15.673422 28.299236 28.299236 0 0 0-14.802677-6.530593 33.52371 33.52371 0 0 0-13.931931 6.09522 171.536904 171.536904 0 0 0-19.591779 15.673422 140.190059 140.190059 0 0 0-16.979541 18.721033 25.251626 25.251626 0 0 0-6.965966 13.931932 141.496178 141.496178 0 0 0 3.04761 25.251625c0 10.884321 4.789101 23.074761 7.401339 35.265201s5.659847 24.38088 9.14283 36.135947 4.789101 17.850287 7.401338 26.557744a103.618739 103.618739 0 0 0-16.979541 19.591779 28.299236 28.299236 0 0 0-5.224474 16.108795 34.394455 34.394455 0 0 0 4.789101 16.544169 68.353538 68.353538 0 0 0 10.448949 13.931931 135.400958 135.400958 0 0 0 16.108795 14.802677h47.020268l16.108796-14.802677a50.503251 50.503251 0 0 0 11.755067-14.802677 27.863863 27.863863 0 0 0 5.224474-16.544168 37.877438 37.877438 0 0 0-6.530593-20.027152A119.292162 119.292162 0 0 0 574.040639 112.32581500000003c0-7.836711 4.353729-16.979541 6.530593-29.169981l7.836712-36.135947c0-11.755067 4.789101-23.074761 6.530592-33.523709a141.93155 141.93155 0 0 0 2.612238-21.33327 26.122371 26.122371 0 0 0-6.965966-14.367305z"  horiz-adv-x="1024" />

    
    <glyph glyph-name="drxx95" unicode="&#59184;" d="M264.62226 140.69759999999997H26.23506a14.7456 14.7456 0 0 1-14.7456-14.7456v-238.3872a14.7456 14.7456 0 0 1 14.7456-15.5648h238.3872a14.7456 14.7456 0 0 1 14.7456 14.7456V125.952a14.7456 14.7456 0 0 1-14.7456 14.7456zM635.71986 140.69759999999997H397.74226a15.1552 15.1552 0 0 1-15.1552-14.7456v-238.3872a15.1552 15.1552 0 0 1 15.1552-14.7456h237.9776a15.1552 15.1552 0 0 1 15.1552 14.7456V125.952a15.1552 15.1552 0 0 1-15.1552 14.7456zM996.57746 140.69759999999997h-237.9776a15.1552 15.1552 0 0 1-15.1552-14.7456v-238.3872a15.1552 15.1552 0 0 1 15.1552-14.7456h237.9776a15.1552 15.1552 0 0 1 15.1552 14.7456V125.952a15.1552 15.1552 0 0 1-15.1552 14.7456zM673.40306 896h-323.584C339.16946 896 329.74866 889.4464 329.74866 881.2544v-238.3872c0-8.192 9.0112-14.7456 20.0704-14.7456h323.584c11.0592 0 20.0704 6.5536 20.0704 14.7456V881.2544c0 8.192-9.0112 14.7456-20.0704 14.7456zM762.28626 197.63199999999995v178.9952h-227.328v-178.5856h-45.4656v178.5856H260.93586v-178.9952H215.47026v224.0512h272.7936V579.3792000000001h46.2848v-157.696h273.2032v-224.0512h-45.4656z"  horiz-adv-x="1024" />

    
    <glyph glyph-name="MicrosoftOffice" unicode="&#59055;" d="M157.615686 896h708.768628c86.337255 0 157.615686-70.27451 157.615686-156.611765v-710.77647c0-86.337255-71.278431-156.611765-157.615686-156.611765h-708.768628c-86.337255 0-157.615686 70.27451-157.615686 156.611765v710.77647c0 86.337255 71.278431 156.611765 157.615686 156.611765zM189.409882 144.855843V618.014118l418.94651 154.563764 227.779765-73.216v-637.229176l-227.779765-69.140079-418.93647 151.853177 418.93647-50.165961v550.450196l-272.51451-63.718902v-372.85647l-146.432-63.708863z"  horiz-adv-x="1024" />

    
    <glyph glyph-name="tuichu" unicode="&#58938;" d="M511.202133 392.611556m-396.721777 0a396.721778 396.721778 0 1 1 793.443555 0 396.721778 396.721778 0 1 1-793.443555 0ZM510.8736 888.573156C232.2176 888.573156 5.518222 661.872356 5.518222 383.216356c0-278.660267 226.699378-505.355378 505.355378-505.355378 278.661689 0 505.355378 226.696533 505.355378 505.355378 0 278.656-226.693689 505.3568-505.355378 505.3568z m-48.105244-192.661334c0 26.443378 21.654756 48.105244 48.105244 48.105245s48.105244-21.661867 48.105244-48.105245v-264.5888c0-26.450489-21.656178-48.106667-48.105244-48.106666-26.450489 0-48.105244 21.656178-48.105244 48.106666V695.911822z m48.105244-625.389511c-172.694756 0-312.694044 140.000711-312.694044 312.694045 0 130.062222 79.443911 241.517511 192.428088 288.64v-108.639289c-58.016711-38.828089-96.211911-104.927289-96.211911-180.000711 0-119.587556 96.894578-216.482133 216.477867-216.482134 119.588978 0 216.483556 96.894578 216.483556 216.482134 0 75.073422-38.192356 141.172622-96.216178 180.000711v108.639289c112.988444-47.122489 192.428089-158.577778 192.428089-288.64-0.001422-172.693333-140.000711-312.694044-312.695467-312.694045z m0 0"  horiz-adv-x="1024" />

    
    <glyph glyph-name="quanxianguanli" unicode="&#58918;" d="M847 764.8c25.3 0 45.8-20.6 45.8-45.8v-670c0-25.3-20.6-45.8-45.8-45.8H177c-25.3 0-45.8 20.6-45.8 45.8V719c0 25.3 20.6 45.8 45.8 45.8h670m0 67.2H177c-62.4 0-113-50.6-113-113v-670c0-62.4 50.6-113 113-113h670c62.4 0 113 50.6 113 113V719c0 62.4-50.6 113-113 113zM631.6 388.2h-44.8v50.9c0 41.2-33.6 74.8-74.8 74.8s-74.8-33.6-74.8-74.8v-50.9h-44.8v50.9c0 66 53.6 119.6 119.6 119.6S631.6 505 631.6 439.1v-50.9zM622.1 128.2H401.9c-37 0-67.1 30.1-67.1 67.2v148c0 37 30.1 67.1 67.1 67.1H622c37 0 67.1-30.1 67.1-67.1v-148.1c0.1-37-30-67.1-67-67.1zM401.9 365.8c-12.3 0-22.3-10-22.3-22.3v-148.1c0-12.3 10-22.4 22.3-22.4H622c12.3 0 22.3 10 22.3 22.4v148c0 12.3-10 22.3-22.3 22.3H401.9zM512 247c-6.2 0-11.2 5-11.2 11.2v47.3c0 6.2 5 11.2 11.2 11.2 6.2 0 11.2-5 11.2-11.2v-47.3c0-6.1-5-11.2-11.2-11.2zM512 254.7m-32.7 0a32.7 32.7 0 1 1 65.4 0 32.7 32.7 0 1 1-65.4 0ZM247.8 477.6c-8.9 0-16 7.2-16 16V623.8c0 8.9 7.2 16 16 16 8.9 0 16-7.2 16-16v-130.1c0.1-8.9-7.1-16.1-16-16.1zM322.3 513.2c-8.9 0-16 7.2-16 16v58.9c0 8.9 7.2 16 16 16 8.9 0 16-7.2 16-16v-58.9c0-8.8-7.1-16-16-16zM776.2 477.6c8.9 0 16 7.2 16 16V623.8c0 8.9-7.2 16-16 16-8.9 0-16-7.2-16-16v-130.1c-0.1-8.9 7.1-16.1 16-16.1zM701.7 513.2c8.9 0 16 7.2 16 16v58.9c0 8.9-7.2 16-16 16-8.9 0-16-7.2-16-16v-58.9c0-8.8 7.1-16 16-16z"  horiz-adv-x="1024" />

    
    <glyph glyph-name="xueshengrizhi" unicode="&#58926;" d="M399.5-34.2H177.2c-29-0.8-57.2 9.9-78.3 29.9-21.1 19.9-33.4 47.5-34.2 76.5V724.9c0.8 29 13.1 56.5 34.2 76.5 21.1 19.9 49.3 30.7 78.3 29.9h544.5c59.9 0.9 109.3-46.5 111-106.4v-242.3c-4-17.5-19.5-29.9-37.4-29.9s-33.5 12.4-37.4 29.9V724.9c-1.6 20-18.3 35.4-38.4 35.3H177.2c-20.1 0.1-36.8-15.3-38.4-35.3v-652.7c1.4-20.1 18.2-35.8 38.4-35.7h222.3c19.5 0 35.3-15.8 35.3-35.3 0-19.6-15.8-35.4-35.3-35.4z m0 0M627.6 572.3H272.4c-19.5 0-35.3 15.8-35.3 35.3 0 19.5 15.8 35.3 35.3 35.3h355.2c19.5 0 35.3-15.8 35.3-35.3 0-19.5-15.8-35.3-35.3-35.3zM627.6 410.6H272.4c-19.5 0-35.3 15.8-35.3 35.3 0 19.5 15.8 35.3 35.3 35.3h355.2c19.5 0 35.3-15.8 35.3-35.3 0-19.4-15.8-35.3-35.3-35.3zM958.6 197.4c0 20.3-13.4 30.7-35.7 32.6-14.1-0.1-27.5 6.2-36.3 17.2-8.8 11-12.1 25.5-9 39.2 8.5 38.4 6.5 43.8-29.6 63.7l-23 12.7c-20.6 17.2-51.2 14.6-68.7-5.8-26.5-20.7-38.4-20.3-63.7 0-17.3 20.6-47.9 23.5-68.7 6.5l-38.4-21.1c-17.4-7.9-25.6-27.9-18.8-45.7 11.9-38.4-5.4-63-46.8-67.2-17.3-1.9-28.8-11.1-29.6-26.5-1.9-30.3-1.9-60.7 0-91 0-19.6 13.1-29.6 34.6-31.5 14 0.1 27.3-6 36.3-16.7 9-10.7 12.9-24.8 10.5-38.6-7.7-40.3-7.7-44.5 30.7-65.3 8.1-4.6 16.1-9.6 24.6-13.8 19.7-13.4 46.3-9.9 61.8 8.1 29.6 25.3 38.4 25 69.5 0 7.3-4.8 14.7-9.4 22.3-13.7 9.6-5.4 21.3-5.3 30.7 0.5 20.8 12.7 41.1 24.7 60.1 38.1 5.7 4.1 9.8 10.2 11 17.1 1 5.8 0.5 11.8-1.6 17.5-14.2 34.6 8.5 64.9 48.4 68.7 16.5 0 27.6 10.4 28.4 25 1.9 30 2.3 60 1 90zM788.7 90.7c-17.4-17.4-41-27.1-65.5-27-37.4 0-71.2 22.5-85.5 57.1-14.3 34.6-6.4 74.4 20.1 100.8 26.5 26.5 66.3 34.4 100.9 20.1 34.6-14.3 57.1-48.1 57.1-85.5 0-24.5-9.7-48.1-27.1-65.5zM270.3 319.8h178.9c19.6 0 35.5-15.9 35.5-35.5s-15.9-35.5-35.5-35.5H270.3c-19.6 0-35.5 15.9-35.5 35.5s15.9 35.5 35.5 35.5z"  horiz-adv-x="1024" />

    
    <glyph glyph-name="shezhi2" unicode="&#58915;" d="M846.6 522.3c-13.6 32.8-5.4 69.3 18 93.1a31.98 31.98 0 0 1 2.6 41.9c-23.8 31-51.3 58.3-81.5 81.6-12.6 9.7-30.5 8.5-41.9-2.6-23.9-23.4-60.3-31.7-93.2-18.1-32.9 13.6-52.8 45.3-53.1 78.8-0.1 15.9-11.9 29.4-27.7 31.5-37.9 5-76.6 5.1-115.4 0.1-15.9-2.1-27.7-15.6-27.8-31.5-0.3-33.5-20.2-65.2-53.1-78.8-32.9-13.6-69.4-5.3-93.3 18.2-11.4 11.2-29.3 12.4-42 2.6-31-23.8-58.2-51.3-81.5-81.6-9.7-12.6-8.5-30.5 2.7-41.9 23.5-23.9 31.8-60.4 18.2-93.2-13.6-32.8-45.2-52.8-78.6-53.1-15.9-0.2-29.4-11.9-31.5-27.8-4.9-37.9-5-76.6 0.1-115.3 2.1-15.8 15.5-27.6 31.4-27.8 33.4-0.3 65-20.3 78.6-53.1 13.6-32.8 5.4-69.1-17.9-93-11.1-11.4-12.3-29.3-2.5-41.9 23.8-30.9 51.4-58.2 81.7-81.4 12.6-9.7 30.4-8.5 41.7 2.6 23.9 23.3 60.2 31.4 92.9 17.9s52.6-44.9 53.1-78.2c0.2-15.9 12-29.2 27.7-31.3 37.9-4.9 76.6-5.1 115.3 0 15.8 2.1 27.6 15.4 27.8 31.3 0.5 33.3 20.4 64.7 53.1 78.2s69 5.4 92.9-17.8c11.4-11.1 29.2-12.2 41.8-2.5 31 23.8 58.3 51.3 81.5 81.5 9.7 12.6 8.5 30.4-2.5 41.8-23.2 23.9-31.3 60.2-17.8 92.9 13.6 32.7 45 52.7 78.4 53.1 15.9 0.2 29.3 12 31.3 27.7 5 37.9 5.2 76.6 0.2 115.3-2 15.8-15.5 27.6-31.4 27.8-33.2 0.4-64.7 20.3-78.3 53zM512.3 382.8m-245.5 0a245.5 245.5 0 1 1 491 0 245.5 245.5 0 1 1-491 0ZM511.3 384.7m-160 0a160 160 0 1 1 320 0 160 160 0 1 1-320 0Z"  horiz-adv-x="1024" />

    
    <glyph glyph-name="daily" unicode="&#59019;" d="M928 704H768v44.8c0 19.2-12.8 32-32 32H640C633.6 844.8 576 896 512 896S390.4 844.8 384 780.8H288c-19.2 0-32-12.8-32-32V704H96c-19.2 0-32-12.8-32-32v-768c0-19.2 12.8-32 32-32h832c19.2 0 32 12.8 32 32v768c0 19.2-12.8 32-32 32zM320 716.8h96c12.8 0 19.2 6.4 25.6 12.8 6.4 6.4 6.4 19.2 6.4 25.6V768c0 38.4 25.6 64 64 64s64-25.6 64-64v-12.8c0-6.4 0-19.2 6.4-25.6 6.4-6.4 12.8-12.8 25.6-12.8H704v-64H320v64zM896-64H128V640h128v-19.2c0-19.2 12.8-32 32-32h448c19.2 0 32 12.8 32 32V640h128v-704zM288 384h256c19.2 0 32 12.8 32 32S563.2 448 544 448h-256c-19.2 0-32-12.8-32-32s12.8-32 32-32zM736 192h-448c-19.2 0-32-12.8-32-32s12.8-32 32-32h448c19.2 0 32 12.8 32 32s-12.8 32-32 32z"  horiz-adv-x="1024" />

    
    <glyph glyph-name="-wenjianjia" unicode="&#59468;" d="M182.9 201.6h-64.1c-4.4 0-6.6-4.4-6.6-6.6 0-4.4 4.4-6.6 8.8-6.6h64.1c2.2 0 4.4 0 4.4 2.2 2.2 2.2 2.2 4.4 2.2 6.6-2.2 0-4.4 4.4-8.8 4.4zM426 201.6H231.5c-4.4 0-6.6-4.4-6.6-6.6 0-4.4 4.4-6.6 6.6-6.6H426c2.2 0 4.4 0 4.4 2.2 2.2 2.2 2.2 4.4 2.2 6.6 0.1 0-2.1 4.4-6.6 4.4zM837.1 707.8H463.6l-46.4 61.9c-4.4 4.4-8.8 8.8-15.5 8.8H189.5C123.2 778.5 68 725.5 68 657v-459.7c0-66.3 53-121.6 121.6-121.6h649.8c66.3 0 121.6 53 121.6 121.6v389c-2.3 66.2-57.5 121.5-123.9 121.5zM114.4 687.9h775.8v-68.5H114.4zM861.5 641.5H461.4l-48.6 66.3c-4.4 4.4-11.1 8.8-17.7 8.8H165.2c-70.7 0-130.4-57.5-130.4-130.4v-495.1c0-70.7 57.5-130.4 130.4-130.4h696.2c70.7 0 130.4 57.5 130.4 130.4v420c0.1 72.9-59.6 130.4-130.3 130.4zM990.1 531.8c-10.1 62.8-64.7 109.7-128.6 109.7H461.4l-48.6 66.3c-4.4 4.4-11.1 8.8-17.7 8.8H165.2c-70.7 0-130.4-57.5-130.4-130.4v-54.4h955.3zM990.1 531.8c-10.1 62.8-64.7 109.7-128.6 109.7H461.4l-48.6 66.3c-4.4 4.4-11.1 8.8-17.7 8.8H165.2c-70.7 0-130.4-57.5-130.4-130.4v-54.4h955.3z"  horiz-adv-x="1024" />

    
    <glyph glyph-name="jueceliubaimingdan" unicode="&#58940;" d="M896 63.8976c90.5216 0 128 37.4784 128 128V768C1024 858.5216 986.5216 896 896 896h-768C37.4784 896 0 858.5216 0 768v-576.1024c0-90.5216 37.4784-128 128-128h320.1024v-128H64.1024c-18.432 0-26.4192-12.288-26.4192-30.72S45.6704-128 64.1024-128h896c18.432 0 26.2144 14.9504 26.2144 33.3824s-7.9872 30.72-26.2144 30.72H576.1024v128l319.8976-0.2048zM64.1024 191.8976V768c0 53.6576 10.24 64.1024 64.1024 64.1024h768c53.6576 0 64.1024-10.24 64.1024-64.1024v-576.1024c0-53.6576-10.24-64.1024-64.1024-64.1024h-768c-53.8624 0.2048-64.1024 10.4448-64.1024 64.1024zM820.8384 693.0432c-14.7456 14.336-38.7072 14.336-53.6576 0L409.8048 345.088l-152.9856 148.8896c-14.7456 14.336-38.7072 14.336-53.6576 0-6.9632-6.7584-11.0592-15.9744-11.0592-26.2144s4.3008-19.456 11.0592-26.2144l179.6096-174.8992c6.9632-6.7584 16.384-10.8544 26.8288-10.8544s20.0704 4.096 26.8288 10.8544l384.2048 374.1696c15.1552 14.336 15.1552 37.888 0.2048 52.224z"  horiz-adv-x="1024" />

    
    <glyph glyph-name="guanlichengyuan" unicode="&#58924;" d="M536.717241 253.351724c3.531034 7.062069 10.593103 17.655172 14.124138 24.717242 3.531034 7.062069 7.062069 17.655172 10.593104 28.248275 3.531034 14.124138 0 24.717241 0 28.248276-3.531034 7.062069-10.593103 14.124138-24.717242 17.655173-7.062069 3.531034-14.124138 3.531034-24.717241 3.531034H268.358621c-28.248276 0-52.965517-3.531034-77.682759-14.124138-60.027586-21.186207-102.4-63.558621-120.055172-120.055172L28.248276 94.455172l-17.655173-60.027586c-3.531034-14.124138 0-28.248276 10.593104-38.841379 7.062069-7.062069 14.124138-10.593103 21.186207-14.124138 21.186207-10.593103 45.903448-14.124138 63.55862-21.186207 52.965517-10.593103 112.993103-17.655172 187.144828-21.186207 35.310345 0 70.62069-3.531034 105.931035-3.531034H459.034483c17.655172 0 28.248276 7.062069 38.841379 17.655172 7.062069 10.593103 14.124138 24.717241 10.593104 38.841379 0 7.062069-3.531034 14.124138-3.531035 21.186207v7.062069c0 7.062069-3.531034 14.124138-3.531034 17.655173v3.531034c-3.531034 14.124138-3.531034 24.717241-7.062069 38.841379-3.531034 42.372414 3.531034 84.744828 24.717241 127.117242 0 17.655172 10.593103 31.77931 17.655172 45.903448z m-38.841379 24.717242c-10.593103-17.655172-17.655172-35.310345-24.717241-49.434483-21.186207-49.434483-31.77931-98.868966-28.248276-148.303449 0-14.124138 3.531034-28.248276 7.062069-42.372413 0-7.062069 3.531034-10.593103 3.531034-17.655173v-10.593103c0-7.062069 3.531034-10.593103 3.531035-14.124138v-7.062069h-63.558621c-35.310345 0-70.62069 0-105.931034 3.531034-74.151724 3.531034-127.117241 10.593103-180.082759 21.186207-17.655172 3.531034-35.310345 7.062069-52.965517 17.655173-3.531034 0-7.062069 3.531034-7.062069 7.062069l17.655172 45.903448c14.124138 38.841379 28.248276 84.744828 42.372414 127.117241 14.124138 45.903448 45.903448 74.151724 95.337931 91.806897 21.186207 7.062069 42.372414 10.593103 63.558621 10.593103h250.703448c-3.531034-3.531034-3.531034-10.593103-7.062069-14.124138-3.531034-7.062069-7.062069-14.124138-14.124138-21.186206zM476.689655 380.468966c137.710345 0 250.703448 112.993103 250.703448 250.703448S614.4 881.875862 476.689655 881.875862C338.97931 881.875862 225.986207 768.882759 225.986207 631.172414s112.993103-250.703448 250.703448-250.703448z m0 459.034482c112.993103 0 204.8-91.806897 204.8-204.8s-91.806897-204.8-204.8-204.8-204.8 91.806897-204.8 204.8 91.806897 204.8 204.8 204.8zM1002.813793 97.986207l56.496552 35.310345-24.717242 112.993103-67.089655 7.062069-17.655172 21.186207 7.062069 67.089655-102.4 49.434483-49.434483-49.434483H776.827586l-49.434483 49.434483-102.4-49.434483h-3.531034l7.062069-67.089655-17.655172-21.186207-67.089656-7.062069-24.717241-112.993103 56.496552-35.310345 7.062069-28.248276-35.310345-56.496552 70.620689-88.275862 63.558621 21.186207 24.717242-10.593103 21.186206-63.558621h116.524138l21.186207 63.558621 24.717242 10.593103 63.55862-21.186207 70.62069 88.275862-35.310345 56.496552 14.124138 28.248276z m-240.110345-183.613793l-17.655172 49.434483-56.496552 28.248275-52.965517-17.655172-35.310345 42.372414 28.248276 45.903448-14.124138 60.027586-42.372414 31.779311 14.124138 52.965517 56.496552 7.062069 38.841379 49.434483-10.593103 56.496551 49.434482 24.717242 38.84138-38.84138h63.55862l38.84138 38.84138 49.434483-24.717242-7.062069-56.496551 38.841379-49.434483 56.496552-7.062069 14.124138-52.965517-45.903449-28.248276-14.124138-60.027586 28.248276-45.903449-35.310345-42.372414-52.965517 17.655173-56.496552-28.248276-17.655172-52.965517h-56.496552zM893.351724 133.296552c0 56.496552-45.903448 102.4-102.4 102.4-56.496552 0-102.4-45.903448-102.4-102.4 0-56.496552 45.903448-102.4 102.4-102.4 56.496552 0 102.4 45.903448 102.4 102.4z m-38.841379 0c0-35.310345-28.248276-63.558621-63.558621-63.558621s-63.558621 28.248276-63.558621 63.558621 28.248276 63.558621 63.558621 63.55862 63.558621-28.248276 63.558621-63.55862z"  horiz-adv-x="1059" />

    
    <glyph glyph-name="web-xietongwendang" unicode="&#58906;" d="M989.717043 336.53835000000004c0-15.844691-15.844691-31.689383-31.689383-31.689382s-31.689383 10.515113-31.689383 31.689382c0 147.787758-84.408992 285.060403-211.166524 348.439169a29.168636 29.168636 0 0 0-15.844691 26.359805c0 10.515113 5.329578 21.174269 15.844691 31.689383s21.174269 5.329578 31.689383 0c147.931801-79.223457 248.185485-237.526329 242.855907-406.488357zM255.963788-38.26062300000001a462.204053 462.204053 0 0 1 274.545289-89.73857c95.068148 0 184.806719 31.689383 264.030176 84.408992 10.515113 5.329578 15.844691 15.844691 15.844692 31.689383s-10.515113 21.174269-21.17427 26.359805-21.174269 5.329578-31.689383-5.329578c-68.564301-47.534074-147.787758-68.564301-227.011215-68.564301-84.408992 0-163.63245 26.359805-232.340793 73.893879-15.844691 10.515113-37.018961 5.329578-47.534074-5.329578-10.515113-15.844691-5.329578-36.874918 5.329578-47.390032zM314.012975 743.026707c-153.117336-79.223457-248.185485-237.526329-248.185484-406.488357 0-15.844691 15.844691-31.689383 31.689383-31.689382s37.018961 10.515113 37.01896 31.689382c0 147.787758 84.408992 279.874867 211.166524 348.439169a29.168636 29.168636 0 0 1 15.844692 26.359805c0 10.515113-5.329578 21.174269-15.844692 31.689383-5.329578 5.329578-21.174269 5.329578-31.689383 0zM923.889552 3.9438730000000533c-73.893879 0-131.943067 58.049188-131.943067 131.943067s58.049188 131.943067 131.943067 131.943067 131.943067-58.049188 131.943067-131.943067-58.049188-131.943067-131.943067-131.943067z m-791.946485 0C58.049188 3.9438730000000533 0 61.99306100000001 0 135.88693999999998s58.049188 131.943067 131.943067 131.943067 131.943067-58.049188 131.943066-131.943067-58.049188-131.943067-131.943066-131.943067z m395.973242 628.169994c-73.893879 0-131.943067 58.049188-131.943066 131.943066S454.02243 896 527.916309 896s131.943067-58.049188 131.943067-131.943067-58.049188-131.943067-131.943067-131.943066z"  horiz-adv-x="1055" />

    
    <glyph glyph-name="biaoqian" unicode="&#59150;" d="M674.311713 538.060795H552.577161V659.794323c0 22.424732-18.153452 40.578184-40.578184 40.578184s-40.578184-18.153452-40.578184-40.578184v-121.733528H349.688287c-22.424732 0-40.578184-18.153452-40.578184-40.578184 0-22.424732 18.153452-40.578184 40.578184-40.578184h121.733529v-121.733529c0-22.424732 18.153452-40.578184 40.578184-40.578184s40.578184 18.153452 40.578184 40.578184V456.904427H674.311713c22.424732 0 40.578184 18.153452 40.578184 40.578184-0.001023 22.424732-18.154475 40.578184-40.578184 40.578184zM836.515978 787.828348v-794.258548L566.56678 151.076066c-16.872273 9.82374-35.666314 14.736633-54.459333 14.736633-18.794042 0-37.694507-4.91187-54.459332-14.736633l-270.16307-157.61269V787.828348H836.515978m0 108.171652H187.482999c-59.798944 0-108.171652-48.480154-108.171652-108.171652V-23.515321c0-43.034119 25.094538-80.19446 61.507866-97.600898 23.171746-11.105942 50.615794-8.222265 72.826655 4.699022l298.354132 174.058244 298.354132-174.058244c22.210861-12.921287 49.65491-15.803941 72.826655-4.699022 36.413328 17.405415 61.507866 54.56678 61.507866 97.600898V787.828348c0.106424 59.691497-48.373731 108.171652-108.172675 108.171652z"  horiz-adv-x="1024" />

    
    <glyph glyph-name="yonghu" unicode="&#58928;" d="M641.8 292H383.5C237.5 292 118 172.5 118 26.5v-20c0-6.6 5.4-12 12-12h765.3c6.6 0 12 5.4 12 12v20c0 146-119.5 265.5-265.5 265.5zM511.3 558.9m-214 0a214 214 0 1 1 428 0 214 214 0 1 1-428 0Z"  horiz-adv-x="1024" />

    
    <glyph glyph-name="xls" unicode="&#58896;" d="M0 896h1024v-1024H0zM665.6 896l256-256v-716.8c0-28.16-23.04-51.2-51.2-51.2H153.6c-28.16 0-51.2 23.04-51.2 51.2V844.8c0 28.16 23.04 51.2 51.2 51.2h512zM368.64 535.04l110.08-158.72-117.76-171.52h66.56l84.48 128 84.48-128h66.56l-117.76 168.96 110.08 158.72H588.8l-76.8-115.2-76.8 115.2h-66.56zM665.6 896l256-256H665.6z"  horiz-adv-x="1024" />

    
    <glyph glyph-name="txt" unicode="&#58950;" d="M0 896h1024v-1024H0zM665.6 896l256-256v-716.8c0-28.16-23.04-51.2-51.2-51.2H153.6c-28.16 0-51.2 23.04-51.2 51.2V844.8c0 28.16 23.04 51.2 51.2 51.2h512zM366.08 535.04v-46.08h107.52V204.8h53.76V488.96h107.52v46.08H366.08zM665.6 896l256-256H665.6z"  horiz-adv-x="1024" />

    
    <glyph glyph-name="wenjian4" unicode="&#58911;" d="M664.690547 870.655724l-2.000164-239.503722h239.513863L664.690547 870.655724z m0 0M607.082545 575.534024V886.881384H171.973491c-37.482149 0-67.843311-30.015126-67.833171-67.054907v-871.794917c0-37.044851 30.381443-67.059977 67.857254-67.059978h678.575078c37.485952 0 67.857254 30.015126 67.857254 67.075188V575.534024H607.082545z m61.202719-490.490005H376.684764c-74.017453 0-134.591476 60.579093-134.591477 134.591477 0 69.565886 51.58216 125.66806 121.137906 134.600349 26.916014 53.85104 82.963685 89.762719 148.04885 89.762719 82.989035 0 150.286041-58.326691 165.997083-134.601616 56.098372-4.475651 103.199812-53.844703 103.199812-112.156184 0-62.836565-49.358912-112.196745-112.191674-112.196745z m0 0"  horiz-adv-x="1024" />

    
    <glyph glyph-name="pdf" unicode="&#58903;" d="M160 864c-12 0-24.8-4.8-33.6-14.4S112 828 112 816v-864c0-12 4.8-24.8 14.4-33.6C136-91.2 148-96 160-96h704c12 0 24.8 4.8 33.6 14.4C907.2-72 912-60 912-48V592L640 864H160zM912 592H688c-12 0-24.8 4.8-33.6 14.4-9.6 8.8-14.4 21.6-14.4 33.6V864l272-272zM696 52.8c-50.4 0-95.2 86.4-119.2 142.4-40 16.8-84 32-126.4 42.4-37.6-24.8-100.8-61.6-149.6-61.6-30.4 0-52 15.2-60 41.6-6.4 21.6-0.8 36.8 5.6 44.8 12.8 17.6 39.2 26.4 79.2 26.4 32 0 72.8-5.6 118.4-16.8 29.6 20.8 59.2 44.8 85.6 70.4-12 56-24.8 146.4 8 188 16 20 40.8 26.4 70.4 17.6 32.8-9.6 44.8-29.6 48.8-44.8 13.6-54.4-48.8-128-91.2-171.2 9.6-37.6 21.6-76.8 36.8-112.8C663.2 192 735.2 152 743.2 108c3.2-15.2-1.6-29.6-13.6-41.6-10.4-8.8-21.6-13.6-33.6-13.6z m-74.4 121.6C652 112.8 680.8 84 696 84c2.4 0 5.6 0.8 10.4 4.8 5.6 5.6 5.6 9.6 4.8 12.8-3.2 16-28.8 42.4-89.6 72.8z m-296 82.4c-39.2 0-50.4-9.6-53.6-13.6-0.8-1.6-4-5.6-0.8-16.8 2.4-9.6 8.8-19.2 29.6-19.2 25.6 0 62.4 14.4 105.6 40-31.2 6.4-58.4 9.6-80.8 9.6z m158.4 4.8c25.6-7.2 52-16 76.8-25.6-8.8 23.2-16 47.2-22.4 70.4-17.6-15.2-36-30.4-54.4-44.8zM583.2 520c-8.8 0-15.2-3.2-20.8-9.6-16.8-20.8-18.4-73.6-5.6-140.8 48.8 52 75.2 100 68.8 125.6-0.8 4-4 15.2-26.4 21.6-6.4 2.4-11.2 3.2-16 3.2z"  horiz-adv-x="1024" />

    
    <glyph glyph-name="zuzhi" unicode="&#58893;" d="M807.936 269.824H778.24V418.816h-239.104V508.416h29.696c32.768 0 59.904 26.624 59.904 59.904V687.616c0 32.768-26.624 59.904-59.904 59.904H449.536c-32.768 0-59.904-26.624-59.904-59.904V568.32c0-32.768 26.624-59.904 59.904-59.904h29.696v-89.6H240.64v-149.504h-29.696c-32.768 0-59.904-26.624-59.904-59.904v-119.296c0-32.768 26.624-59.904 59.904-59.904h119.296c32.768 0 59.904 26.624 59.904 59.904V209.92c0 32.768-26.624 59.904-59.904 59.904h-29.696v89.6h418.304v-89.6h-29.696c-32.768 0-59.904-26.624-59.904-59.904v-119.296c0-32.768 26.624-59.904 59.904-59.904h119.296c32.768 0 59.904 26.624 59.904 59.904V209.92c-0.512 32.768-27.136 59.904-60.416 59.904zM449.536 568.32V687.616h119.296V568.32H449.536z m-119.296-358.4v-119.296H210.944V209.92h119.296z m477.696-119.296h-119.296V209.92h119.296v-119.296z"  horiz-adv-x="1024" />

    
    <glyph glyph-name="zip" unicode="&#58914;" d="M672 832H179.2c-25.6 0-51.2-25.6-51.2-51.2v-800c0-25.6 25.6-51.2 51.2-51.2H832c25.6 0 51.2 25.6 51.2 51.2v640h-211.2V832zM672 620.8h211.2L672 832zM486.4 480h70.4v-70.4H486.4zM416 377.6v-243.2h140.8V377.6H416z m108.8-211.2H454.4v70.4h70.4v-70.4zM416 550.4h70.4v-70.4H416zM416 691.2h70.4v-70.4H416zM416 832h70.4v-70.4H416zM486.4 761.6h70.4v-70.4H486.4zM486.4 620.8h70.4v-70.4H486.4z"  horiz-adv-x="1024" />

    
    <glyph glyph-name="psd" unicode="&#59024;" d="M847.103872-128H176.895872A76.8 76.8 0 0 0 102.399872-49.152V817.152A76.8 76.8 0 0 0 176.895872 896h521.216L921.599872 659.712v-708.864A76.8 76.8 0 0 0 847.103872-128zM921.599872 580.864H102.399872V817.152A76.8 76.8 0 0 0 176.895872 896h521.216L921.599872 659.712zM921.599872 659.712h-148.992a76.8 76.8 0 0 0-74.496 78.848V896l111.872-118.272zM267.519872 770.816a39.936 39.936 0 0 0 41.472-42.24 39.936 39.936 0 0 0-42.24-41.472H237.567872v-42.752h-19.456V770.816z m-29.952-66.56h25.6c16.896 0 25.6 8.704 25.6 25.6a23.296 23.296 0 0 1-25.6 25.6h-25.6zM347.903872 678.4c1.536-12.032 13.312-19.712 30.208-19.712s27.392 8.192 27.392 19.456-7.424 15.36-24.064 19.456l-16.384 3.84C342.271872 706.816 332.799872 716.8 332.799872 736.256c0 22.528 18.432 37.632 46.08 37.632a40.96 40.96 0 0 0 45.312-36.352h-18.944a25.6 25.6 0 0 1-25.6 18.944c-15.36 0-25.6-7.424-25.6-18.944s6.656-14.08 23.04-17.92l13.824-3.328c25.6-6.144 36.608-16.64 36.608-35.584 0-24.064-18.688-39.424-48.64-39.424S329.727872 655.872 328.447872 678.4zM496.639872 770.816a55.808 55.808 0 0 0 59.392-62.72 56.32 56.32 0 0 0-59.392-63.744h-45.824V770.816z m-25.6-108.544h23.808a39.68 39.68 0 0 1 41.728 45.312 39.936 39.936 0 0 1-41.728 45.312h-23.808zM419.071872 339.712a92.416 92.416 0 0 0 97.024-97.536 93.184 93.184 0 0 0-99.072-96.256H354.303872V51.2h-51.2V339.712z m-64.768-151.04h51.2a51.2 51.2 0 0 1 58.368 53.504 51.2 51.2 0 0 1-58.112 54.528h-51.2zM644.351872 274.432c51.2 0 84.48-23.04 88.064-62.72h-46.592c-3.584 15.36-18.176 25.6-41.216 25.6s-39.68-10.752-39.68-25.6 10.496-19.968 32.512-25.6l38.4-8.704c41.984-9.472 61.184-27.392 61.184-59.648 0-41.984-38.4-69.888-93.184-69.888s-88.832 23.552-92.672 63.232h48.896c4.864-16.128 20.224-25.6 45.056-25.6s42.496 11.008 42.496 27.136-9.472 20.224-30.208 25.6l-38.912 8.96c-41.984 9.472-61.696 28.928-61.696 61.952 0 37.888 35.84 65.28 87.552 65.28z"  horiz-adv-x="1024" />

    
    <glyph glyph-name="tuichu-" unicode="&#59001;" d="M511.996206 330.356665c-19.501149 0-39.009885 14.629655-39.009885 39.009886V856.993909C472.990115 881.374139 492.495057 896 511.996206 896c19.508737 0 39.013679-14.625861 39.013679-39.006091v-492.498852c0-19.504943-19.504943-34.138392-39.013679-34.138392z m0 0M789.944483 759.465402c-4.879081 4.879081-14.629655 4.879081-19.504942 4.879081-19.504943 0-39.013679-14.625861-39.01368-39.013679 0-14.622067 4.879081-24.376436 14.629656-29.251723 107.275287-73.140689 180.41977-199.928507 180.41977-341.334598 0-229.184024-185.291263-414.475287-414.479081-414.475287-229.18023 0-414.471493 185.291263-414.471493 414.475287 0 141.406091 68.265402 263.311034 175.540689 341.334598 9.750574 4.875287 19.501149 19.501149 19.501149 29.251723 0 19.508737-14.625861 39.013679-39.009886 39.013679-9.750574 0-14.625861-4.879081-19.501148-9.754368C107.275287 671.691263 24.38023 525.409885 24.38023 359.61977 24.38023 91.429655 243.809885-128 511.996206-128c268.190115 0 487.623564 219.429655 487.623564 487.61977 0 165.790115-82.895057 312.071493-209.675287 399.845632z m0 0"  horiz-adv-x="1024" />

    
    <glyph glyph-name="wenjianjia1" unicode="&#58881;" d="M561.63235285 731.42647073h335.01838211c27.29779432 0 49.63235285-22.33455854 49.63235366-49.63235284v-62.04044147c0-27.29779432-22.33455854-49.63235285-49.63235366-49.63235284H561.63235285c-27.29779432 0-49.63235285 22.33455854-49.63235285 49.63235284v62.04044147c0 27.29779432 22.33455854 49.63235285 49.63235285 49.63235284zM983.50735284-37.875H189.38970568c-54.59558862 0-99.26470568 44.66911789-99.26470568 99.26470568V706.61029432c0 54.59558862 44.66911789 99.26470568 99.26470568 99.26470568h285.38602928c68.24448496-18.61213211 54.59558862-53.35477927 99.2647065-99.26470568l31.02021992-49.63235286H983.50735284c54.59558862 0 99.26470568-44.66911789 99.26470569-99.2647065v-496.32352928c0-54.59558862-44.66911789-99.26470568-99.26470569-99.26470568z"  horiz-adv-x="1204" />

    
    <glyph glyph-name="wenjianjia2" unicode="&#59004;" d="M561.63235285 731.42647073h335.01838211c27.29779432 0 49.63235285-22.33455854 49.63235366-49.63235284v-62.04044147c0-27.29779432-22.33455854-49.63235285-49.63235366-49.63235284H561.63235285c-27.29779432 0-49.63235285 22.33455854-49.63235285 49.63235284v62.04044147c0 27.29779432 22.33455854 49.63235285 49.63235285 49.63235284zM983.50735284-37.875H189.38970568c-54.59558862 0-99.26470568 44.66911789-99.26470568 99.26470568V706.61029432c0 54.59558862 44.66911789 99.26470568 99.26470568 99.26470568h285.38602928c68.24448496-18.61213211 54.59558862-53.35477927 99.2647065-99.26470568l31.02021992-49.63235286H983.50735284c54.59558862 0 99.26470568-44.66911789 99.26470569-99.2647065v-496.32352928c0-54.59558862-44.66911789-99.26470568-99.26470569-99.26470568z"  horiz-adv-x="1204" />

    
    <glyph glyph-name="xiangmuzu" unicode="&#58921;" d="M232.9856 259.2512c1.28 19.5328 5.9136 33.5616 39.8592 52.3008 31.2576 17.3056 51.4816 24.704 111.3856 52.2752 9.5488 4.4032 22.0416 38.7072-13.3888 55.9104-11.3408 4.864-74.3936 32.384-74.3936 32.384l-35.6352-81.7664h-13.44l14.4128 56.6272H197.0688l14.4128-56.6272h-13.3632l-35.6352 81.7664s-76.928-33.2032-88.2688-38.0416c-11.3408-4.864-34.0224-15.3856-40.4992-45.3376-6.4768-29.9776-33.2032-144.128-33.2032-144.128s-7.68-41.344 34.816-46.976c32.6656-4.3264 52.6336 3.2512 52.6336 3.2512s20.5568-49.408 135.6032-49.408M150.5024 518.0416c10.9056-0.6144 17.1776-15.5392 25.856-23.7568 8.6272-8.192 19.6352-23.1168 52.9408-23.296v-0.0256h0.5632v0.0256c33.3056 0.1792 44.3136 15.104 52.9408 23.296 8.6784 8.2176 14.9504 23.1424 25.856 23.7568 30.1568 1.6896 45.4656 3.328 30.0032 97.792-16.9728 103.8336-56.3968 129.3824-108.8 129.9456v0.0256h-0.5632v-0.0256c-52.4032-0.5632-91.8272-26.112-108.8-129.9456-15.4624-94.464-0.1536-96.0768 30.0032-97.792zM403.5072 472.3456c0-13.6192-0.2816-29.9264 5.8624-40.1408s13.0816-7.7824 16.3584-15.1296c3.2512-7.3472 5.9392-22.4512 16.4352-37.3248 10.4704-14.8736 38.8864-39.8848 52.352-44.6208 10.368-3.6352 17.4848-1.8176 17.5104-1.8176 0 0 7.1168-1.792 17.4848 1.8176 13.4912 4.736 41.9072 29.7472 52.352 44.6208 10.496 14.8736 13.2096 29.9776 16.4608 37.3248 3.2512 7.3728 10.1888 4.9152 16.3584 15.1296s5.8624 26.5472 5.8624 40.1408-10.3424 10.3424-10.3424 10.3424-1.6128 9.2672-1.6128 14.1568c0 4.8896 7.04 13.5936 7.04 13.5936s4.608-25.2928 4.608 37.9136-60.5952 90.88-108.1856 90.88c-47.616 0-108.1856-27.6736-108.1856-90.88s4.608-37.9136 4.608-37.9136 7.0656-8.704 7.0656-13.5936-1.6384-14.1568-1.6384-14.1568-10.3936 3.2768-10.3936-10.3424zM512.896 322.3552h-14.7712l-14.976-21.5808 20.0704-25.1648s-4.7872-18.5856-4.7872-31.744v-29.9264l-63.8208 124.5184s-125.5168-56.704-138.9056-63.0528c-13.3632-6.4-19.1232-14.0288-20.3776-30.592l-12.7488-165.6576s18.432-35.4304 56.8576-35.4304 38.9632 8.96 38.9632 8.96 33.7408-59.2128 153.6-59.2128c119.8336 0 153.5744 59.2128 153.5744 59.2128s0.5376-8.96 38.9376-8.96c38.4512 0 56.9088 35.4304 56.9088 35.4304l-12.7488 165.6576c-1.3056 16.5632-6.9888 24.192-20.4032 30.592-13.3888 6.3488-138.9056 63.0528-138.9056 63.0528l-61.7984-120.6016v26.0096c0 13.184-4.8128 31.744-4.8128 31.744l20.0448 25.1648-14.9504 21.5808h-14.7968M802.4064 131.4816c115.0976 0 133.248 49.408 133.248 49.408s19.9424-7.5776 52.608-3.2512c42.496 5.632 34.8416 46.976 34.8416 46.976s-26.752 114.1504-33.2032 144.128c-6.5024 29.952-29.1584 40.4992-40.4992 45.3376-11.3408 4.8384-88.2432 38.0416-88.2432 38.0416l-35.6608-81.7664h-13.3632l14.4128 56.6272H761.856l14.3872-56.6272h-13.4144l-35.6608 81.7664s-63.0016-27.52-74.3424-32.384c-35.456-17.2032-22.9376-51.5072-13.3888-55.9104 59.904-27.5968 80.1536-34.9952 111.4112-52.2752 33.9456-18.7392 38.5536-32.768 39.8592-52.3008M714.9568 518.0416c10.9056-0.6144 17.2032-15.5392 25.856-23.7568 8.6528-8.192 19.6864-23.1168 52.9408-23.296v-0.0256h0.5632v0.0256c33.3312 0.1792 44.3392 15.104 52.9408 23.296 8.704 8.2176 14.9504 23.1424 25.856 23.7568 30.1568 1.6896 45.4912 3.328 30.0544 97.792-16.9984 103.8336-56.4224 129.3824-108.8512 129.9456v0.0256h-0.5632v-0.0256c-52.3776-0.5376-91.8016-26.112-108.8-129.9456-15.4624-94.464-0.1536-96.0768 30.0032-97.792z"  horiz-adv-x="1024" />

    
    <glyph glyph-name="shezhi1" unicode="&#58929;" d="M372.9 26.299999999999955s138.9 81 265.9-5l107.4 54s8.3 218 124.5 243c0 0 18.1 95 1.6 116 0 0-102.6 12-139.5 109-5.3 23.4-63.4 91.4-139 44 0 0-51.8-41.9-148.9-17.9-41.4 50.4-126.6 46-149.7-21.2 0 0-87.9-135.3-161.2-112 0 0-53.8-91.9-13.5-107.9 0 0 131.1-35 145.2-240l107.2-62zM508.7 225.89999999999998c-88.9 0-161.2 72.3-161.2 161.2s72.3 161.2 161.2 161.2S669.9 475.9 669.9 387s-72.3-161.1-161.2-161.1z m0 282.3c-66.8 0-121.2-54.4-121.2-121.2 0-66.8 54.4-121.2 121.2-121.2 66.8 0 121.2 54.4 121.2 121.2 0 66.9-54.4 121.2-121.2 121.2zM646.2-10.600000000000023l-9.5 8c-57.3 48.3-117.5 63.4-179 44.9-47.2-14.2-78-43.6-78.3-43.9l-4.8-4.7-6.6-0.8c-7.4-0.9-14.3 1.5-32 11.5-9.2 5.2-21.3 12.4-35.9 21.5-24.7 15.4-48.7 31.1-48.9 31.2l-10.5 6.9 1.6 12.5c10.8 81.5-6.8 143.9-52.1 185.4-34.2 31.3-72.6 39.1-73 39.1l-12.2 2.3-3.3 11.9c-14.6 51.1-1.1 135-0.5 138.5l1.9 11.4 10.8 4.1c69.1 25.9 111.7 71.5 126.6 135.5 11.3 48.3 2.2 88.8 2.1 89.2l-2.2 9.5 6.2 7.6c25.4 31.2 101.9 67 110.5 70.9l11.5 5.3 9.7-8.1c58.3-48.7 119.2-63.7 181.1-44.5 46.6 14.5 75.9 43.1 76.2 43.4l8.2 8.2 11.2-3.1c4-1.1 12.3-3.4 63.6-35.5 24.3-15.2 47.1-30.1 47.3-30.3l11.5-7.5-2.9-13.4c-15.3-71.5 0.6-131.3 47.3-177.6 35.9-35.7 77.6-50.1 78-50.3l8.4-2.9 3.6-8.1c7.2-16.6 9.9-43.7 8.2-82.8-1.2-27.3-4.1-50.2-4.2-51.1l-1.5-11.9-11.2-4.3c-70.7-27-113.8-72.9-128.2-136.5-11-48.7-0.6-90.4-0.5-90.8l3.1-11.9-9.2-8.1c-37.5-33.4-107.6-64.3-110.5-65.6l-11.6-5.1z m-276.9 42.8z m-86 51.7c30-19.5 62.7-39.7 78.2-48 14.5 11.7 43.6 32.1 82.8 44.2 50.2 15.5 126.2 19.9 208.1-44 18.2 8.6 55.1 27.2 80.4 46.7-3 18.4-6.5 54.3 2.4 95.1 11.3 51.9 45.3 121.3 142 162.3 3.1 30.1 5 72.4-0.1 94.1-16.4 6.9-50.9 23.9-82.5 54.8-38.1 37.3-78.8 102.2-62.1 202-30.5 19.8-63.4 40.2-79.8 49.1-14.6-11.8-43.3-31.8-81.7-43.8-18.1-5.6-39.5-9.8-63.5-9.8-42.3 0-92.3 12.9-145 53.7-26.3-12.9-62.1-32.9-79.2-48.4 2.6-17.7 5.7-54.5-4.1-96.3-12-51.5-46.2-120-140.4-159.4-2.7-20.7-7.3-66.3-1.4-99.2 17.2-5.3 48.4-17.7 77.8-44 25.1-22.4 43.7-50.3 55.4-82.9 13.3-36.6 17.5-79 12.7-126.2z"  horiz-adv-x="1024" />

    
    <glyph glyph-name="word" unicode="&#58891;" d="M136.484623 895.999854a49.151979 49.151979 0 0 1-35.839985-15.359994A54.418262 54.418262 0 0 1 85.284645 844.799876v-921.599605a49.151979 49.151979 0 0 1 15.359993-35.839985A50.614835 50.614835 0 0 1 136.484623-127.999707h750.884249a49.151979 49.151979 0 0 1 35.839985 15.359993 50.614835 50.614835 0 0 1 15.359993 35.839985V605.915407L648.484403 895.999854zM938.715136 605.915407H699.684381a52.516549 52.516549 0 0 0-51.199978 51.199978V895.999854zM264.484568 518.875444h69.046827l69.046828-260.242174h0.877714l75.922253 260.242174h66.559971l76.799968-260.242174 69.924541 260.242174h66.559971l-102.399956-335.432999h-69.046827l-75.775968 257.755318h-0.877714l-76.799967-256.877604h-68.60797z"  horiz-adv-x="1024" />

    
    <glyph glyph-name="tuichu1" unicode="&#59608;" d="M956.928 391.168c0-7.168-2.56-13.312-8.192-18.944l-228.352-228.352c-5.12-5.12-11.776-8.192-18.944-8.192-7.168 0-13.824 2.56-18.944 8.192-5.12 5.12-8.192 11.776-8.192 18.944v120.832h-184.32c-7.168 0-13.312 2.56-18.944 8.192-5.12 5.12-8.192 11.776-8.192 18.944V471.552c0 7.168 2.56 13.312 8.192 18.944 5.12 5.12 11.776 8.192 18.944 8.192h184.32V619.52c0 7.168 2.56 13.312 8.192 18.944 5.12 5.12 11.776 8.192 18.944 8.192 7.168 0 13.824-2.56 18.944-8.192l228.352-228.352c5.12-5.632 8.192-11.776 8.192-18.944z m0 0M492.032-29.696H346.624c-52.736 0-102.4 20.48-139.264 57.856-37.376 37.376-57.856 87.04-57.856 139.264V614.4c0 52.736 20.48 102.4 57.856 139.264 37.376 37.376 87.04 57.856 139.264 57.856h145.408c43.52 0 78.848-35.328 78.848-78.848s-35.328-78.848-78.848-78.848H346.624c-22.016 0-39.424-17.92-39.424-39.424v-446.976c0-22.016 17.92-39.424 39.424-39.424h145.408c43.52 0 78.848-35.328 78.848-78.848 0.512-43.52-35.328-78.848-78.848-78.848z m0 0"  horiz-adv-x="1024" />

    
    <glyph glyph-name="wode-mima" unicode="&#58979;" d="M651.857 613.853c-36.484 24.323-87.562 12.161-109.453-26.756-24.323-36.484-12.162-87.563 26.755-109.453 36.485-21.891 87.563-9.73 109.454 26.755 21.89 36.485 12.161 85.13-26.756 109.454M661.587 374.198c-31.62-9.73-60.808-9.73-92.428-2.432-4.864 2.432-7.297 0-12.161-4.865l-43.782-72.97c0-2.432-2.432-2.432-4.864-4.864 9.729-4.864 17.026-9.729 24.323-14.594 19.458-12.161 26.755-36.484 19.458-55.943-7.297-21.89-29.188-34.052-51.078-31.62-7.297 0-14.594 4.865-21.891 7.297-7.297 2.433-14.594 9.73-21.89 12.162-4.865-7.297-9.73-14.594-14.595-24.323 7.297-4.865 17.026-9.73 24.323-14.594 17.027-12.162 24.323-26.755 21.891-48.646-2.432-19.459-14.594-34.052-34.052-38.917-14.594-4.865-26.755 0-41.35 7.297l-21.89 14.594c-2.432-2.433-2.432-4.865-4.865-7.297-14.593-24.323-43.781-31.62-65.672-17.026-24.323 14.594-29.188 43.781-14.594 68.104l21.891 36.485c48.646 77.834 97.292 158.1 145.938 235.933 2.433 4.865 2.433 7.297 0 12.162-41.349 51.078-51.078 109.453-31.62 172.693C469.435 683.1 559.43 734.18 639.696 717.153c82.698-17.026 138.641-80.266 143.506-165.397 7.297-80.266-46.214-155.667-121.615-177.558M510.784 894.71C228.637 894.71 0 666.074 0 383.927s228.637-510.784 510.784-510.784 510.784 228.637 510.784 510.784c0 279.715-228.637 510.784-510.784 510.784"  horiz-adv-x="1024" />

    
    <glyph glyph-name="biaoqian1" unicode="&#58932;" d="M512 384m-447.6 0a447.6 447.6 0 1 1 895.2 0 447.6 447.6 0 1 1-895.2 0ZM332 640.6c-30.8 0-56.8-26.1-56.8-56.8v-130.4c0-30.8 19-73.5 40.3-94.8l222.7-222.7c21.3-21.3 56.8-21.3 78.2 0l163.5 163.5c21.3 21.3 21.3 56.8 0 78.2L557.1 600.3c-21.3 21.3-64 40.3-94.8 40.3H332z m73.4-187.2c-30.8 0-56.8 26.1-56.8 56.8 0 30.8 26.1 56.8 56.8 56.8 30.8 0 56.8-26.1 56.8-56.8 0.1-30.7-26-56.8-56.8-56.8z"  horiz-adv-x="1024" />

    
    <glyph glyph-name="OA" unicode="&#58935;" d="M513 805.3l-408.2-76c-22.2-4.1-40.3-26.2-40.3-49l1.7-584.5c0.1-22.8 18.2-45.2 40.3-49.7L513.1-37c22.1-4.5 51 7.6 51 30.4V774c0 22.8-28.9 35.4-51.1 31.3z m-238.6-514c-16.4-22.3-38.9-33.4-67.7-33.4-28.8 0-51.4 11.1-67.7 33.4-14.7 19.7-22.1 44.5-22.1 74.3 0 29.8 7.4 54.6 22.1 74.3 16.3 22 38.9 33 67.7 33 28.8 0 51.3-11 67.7-33 14.7-19.7 22.1-44.5 22.1-74.3 0-29.8-7.3-54.6-22.1-74.3z m195.8-30.6l-23.5 57.8h-90.2L333 260.7h-32.7l86.1 210.5h29.9l40.8-99.3h-1.4v-1h1.8l45.3-110.3h-32.6zM368.8 347.4h65.6l-33 80.5zM206.7 443c-19.6 0-34.5-8.2-44.9-24.4-9.1-14-13.6-31.7-13.6-53 0-21.1 4.7-38.8 14-53 10.4-16.7 25.3-25.1 44.6-25.1s34.1 8.2 44.6 24.8c9.1 14.2 13.6 32 13.6 53.3 0 21.3-4.4 39-13.3 53-10.5 16.3-25.5 24.4-45 24.4zM959.6 517.8V656.4c0 10.7-8.7 19.5-19.5 19.5H734.2v-58.8h-98c-10.7 0-19.5-8.7-19.5-19.5v-434.4c0-10.7 8.7-19.5 19.5-19.5h97.4v-89.1h205.3c10.7 0 19.5 8.7 19.5 19.5v143c0 10.7-8.7 19.5-19.5 19.5H733.6v-33.5h-57.5V559.5h58.1v-61.2h205.9c10.7 0 19.5 8.7 19.5 19.5z"  horiz-adv-x="1024" />

    
    <glyph glyph-name="wenjian5" unicode="&#59359;" d="M914.92 608.656L697.718 814.526v-128.338c0-43.554 34.968-79.189 77.706-79.189h141.99l-2.494 1.657zM768.284 579.267c-54.48 0-99.056 48.997-99.056 108.882V829.777h-373.35c-30.593 0-55.624-27-55.624-60v-348.869h490.802c37.476 0 68.137-33.073 68.137-73.496v-207.894c0-40.424-30.661-73.497-68.137-73.497H240.254v-70.128c0-33 25.031-60 55.625-60h563.637c30.594 0 55.625 27 55.625 60V579.267H768.284zM698.416 375.852H158.572c-30.911 0-56.206-25.295-56.206-56.205v-152.502c0-30.91 25.295-56.205 56.206-56.205h539.844c30.91 0 56.2 25.294 56.2 56.205V319.64700000000005c0 30.91-25.29 56.205-56.2 56.205z m-377.228-83.745c-2.81-2.623-6.086-3.932-9.928-3.932h-79.529c-9.927 0-14.987-4.216-14.987-12.648v-31.102h82.996c4.024 0 7.305-1.31 9.928-3.933 2.528-2.528 3.746-5.808 3.746-9.928 0-9.367-4.873-14.144-14.518-14.144h-82.152v-42.532c0-10.959-5.06-16.393-15.175-16.393-10.398 0-15.55 5.434-15.55 16.393V295.85299999999995c0 13.679 7.68 20.513 23.041 20.513h101.917c4.403 0 7.962-1.496 10.585-4.403 2.81-2.618 4.125-6.182 4.125-10.585 0-3.65-1.501-6.743-4.499-9.27z m47.683-119.154c0-10.398-5.343-15.549-16.019-15.549-9.65 0-14.522 5.247-14.522 15.736V304.28499999999997c0 10.489 4.872 15.736 14.522 15.736 10.676 0 16.02-5.247 16.02-15.736v-131.332z m136.013-11.99h-91.332c-18.36 0-27.636 8.335-27.636 24.916V303.72400000000005c0 10.959 5.247 16.393 15.741 16.393 9.832 0 14.705-5.434 14.705-16.393v-105.476c0-6.091 3.28-9.089 9.928-9.089h77.846c10.115 0 15.174-4.686 15.174-14.144 0.092-9.366-4.776-14.052-14.426-14.052z m153.158 0H555.655c-8.057 0-14.143 2.153-18.268 6.465-4.307 4.029-6.46 9.554-6.46 16.58V293.79100000000005c0 15.084 7.865 22.671 23.697 22.671h102.104c9.276 0 13.866-4.964 13.866-14.988 0-3.467-1.501-6.465-4.403-9.088-2.623-2.62-5.808-3.933-9.554-3.933h-82.152c-5.156 0-8.528-0.935-10.211-2.715-1.78-1.688-2.72-4.873-2.72-9.554v-20.983H646.8c4.03 0 7.214-1.5 9.554-4.402 2.528-2.624 3.746-5.996 3.746-9.933 0-9.271-4.681-13.86-14.144-13.86H561.93V200.39999999999998c0-7.496 4.594-11.242 13.865-11.242h83.184c4.12 0 7.587-1.405 10.398-4.12 2.527-2.81 3.745-6.182 3.745-10.398 0-9.18-4.964-13.678-15.079-13.678z"  horiz-adv-x="1024" />

    
    <glyph glyph-name="as-wendangku" unicode="&#58916;" d="M689.470453 528.595519c-19.508203 0-38.293879-2.890104-56.176398-8.309049-2.528841-0.722526-5.057682-4.877051 0.722526-11.379785 7.947786-9.031575 14.631152-18.966308 21.314518-29.081672 5.418945-8.309049 8.489681-10.115364 13.005468-9.392838 6.863997 1.083789 13.908626 1.806315 21.133886 1.806315 73.517022 0 133.125419-63.040395 133.125419-140.711942 0-77.852179-59.608397-140.892574-133.125419-140.892574-14.45052 0-28.178515 2.709473-41.364614 7.044629-12.644205 3.973893-14.992415-0.722526-17.159993-3.070736-8.309049-9.392838 13.1861-19.688834 3.61263-27.63662-3.251367-2.709473-7.22526-9.934733 3.793262-14.811783 24.927148-11.018522 22.037044-16.256835 51.118715-16.256836 108.198271 0 195.804551 87.967543 195.804551 196.346446 0 108.559534-87.60628 196.346446-195.804551 196.346445M268.418416 207.071441c-18.605045-10.295996-39.5583-16.256835-61.956606-16.256835-73.517022 0-133.125419 63.040395-133.125419 140.892573 0 77.671547 59.608397 140.711942 133.125419 140.711943 2.528841 0 5.238314-0.180632 7.767155-0.180632 5.238314 0 7.044629 1.264421 7.044628 15.353678 0 10.476627 0.903158 25.469042-0.722526 34.86188-0.722526 4.515788-3.793262 6.141471-9.392838 6.141471-5.418945 0-3.070736 0.180632-4.515788 0.180632C98.44417 528.595519 10.657259 440.808608 10.657259 332.249074c0-108.378903 87.60628-196.346446 195.804551-196.346446 37.932616 0 73.155759 10.83789 103.140589 29.442936 2.709473 2.167578 1.806315 3.61263-2.528841 7.405891-5.96084 5.418945-24.02399 26.191568-29.262304 32.152408-3.973893 4.335156-5.96084 3.61263-9.392838 2.167578M454.107603 508.726054c81.464809 0 147.395308-69.723761 147.395308-155.704357s-65.930499-155.704357-147.395308-155.704357c-81.284177 0-147.214676 69.723761-147.214677 155.704357 0 0 1.264421 5.96084-9.392838 5.96084h-50.757453c-10.295996 0-9.031575-6.683366-9.031575-6.683366 0-120.119951 96.999118-217.2997 216.577174-217.2997S670.865408 232.17922 670.865408 352.299171c0 119.939319-96.999118 217.2997-216.577174 217.2997 0 0-15.353678-1.264421-15.353678-13.727994v-32.874934c0-11.921679 15.173046-14.269889 15.173047-14.269889M454.107603 389.870524c-81.284177 0-147.214676 69.723761-147.214677 155.704357s65.930499 155.884989 147.214677 155.884988c81.464809 0 147.395308-69.723761 147.395308-155.884988 0 0-1.083789-5.96084 9.392838-5.96084h50.757453c10.295996 0 9.212207 6.683366 9.212206 6.683366 0 120.119951-96.999118 217.2997-216.757805 217.2997-119.578056 0-216.577174-97.17975-216.577174-217.2997 0-119.939319 96.999118-217.2997 216.577174-217.2997 0 0 15.353678 1.264421 15.353678 13.727994v32.874934c0 11.921679-15.353678 14.269889-15.353678 14.269889M884.010584 409.017463H649.008996c-12.463574 0-22.578938-9.392838-22.578938-20.953254v-363.430588c0-11.560416 10.115364-20.953255 22.578938-20.953254h320.801553c12.463574 0 22.578938 9.392838 22.578938 20.953254V314.366555l-108.378903 94.650908zM994.01517 312.018345l-91.399541-0.180631c-9.934733 0-17.882519 9.754101-17.882519 22.037043l-0.722526 75.142706 110.004586-96.999118z m-1.445052 4.335156M922.304463 239.404481H696.695714c-0.180632 0-0.361263 0.180632-0.361263 0.361263V265.596049c0 0.180632 0.180632 0.361263 0.361263 0.361263h225.608749c0.180632 0 0.361263-0.180632 0.361263-0.361263v-25.649674c0-0.361263-0.180632-0.541895-0.361263-0.541894zM922.304463 159.745987H696.695714c-0.180632 0-0.361263 0.180632-0.361263 0.361263v25.649674c0 0.180632 0.180632 0.361263 0.361263 0.361263h225.608749c0.180632 0 0.361263-0.180632 0.361263-0.361263v-25.649674c0-0.180632-0.180632-0.361263-0.361263-0.361263zM922.304463 80.268125H696.695714c-0.180632 0-0.361263 0.180632-0.361263 0.361263v25.649674c0 0.180632 0.180632 0.361263 0.361263 0.361263h225.608749c0.180632 0 0.361263-0.180632 0.361263-0.361263v-25.649674c0-0.180632-0.180632-0.361263-0.361263-0.361263z"  horiz-adv-x="1024" />

    
    <glyph glyph-name="OA1" unicode="&#59435;" d="M608.4 375.8h90.1l-45.2 146.9zM433.3 484.7c-8.8 12.3-27.3 33.1-52.2 33.1-24.9 0-43.4-20.7-52.2-33.1-18.6-26.1-29.2-63.1-29.2-101.5s10.7-75.4 29.2-101.5c8.8-12.3 27.3-33.1 52.2-33.1 24.9 0 43.4 20.7 52.2 33.1 18.6 26.1 29.2 63.1 29.2 101.5s-10.7 75.4-29.2 101.5zM905.4 607.6L511.7 831.2 118.3 606.9l0.4-448 393.8-223.7 393.3 224.3-0.4 448.1zM381.1 198.7c-72.6 0-131.4 82.6-131.4 184.5s58.8 184.5 131.4 184.5 131.4-82.6 131.4-184.5-58.9-184.5-131.4-184.5z m400.7-8.6c-2.4-0.8-4.9-1.1-7.4-1.1-10.7 0-20.6 6.9-23.9 17.7l-36.7 119.2H593.2l-36.4-119.2c-4-13.2-18-20.6-31.2-16.6s-20.6 18-16.6 31.2l99.6 326c5.5 18 23.5 30.2 44.7 30.2 21.3 0 39.2-12.1 44.7-30.1l100.3-326c4.1-13.3-3.3-27.3-16.5-31.3z"  horiz-adv-x="1024" />

    
    <glyph glyph-name="weibiaoti-" unicode="&#58919;" d="M877.695855 896H146.297694C65.46917 896-0.006451 830.459871-0.006451 749.695855v-731.456218c0-80.764017 65.475621-146.239637 146.304145-146.239637H877.695855c80.822074 0 146.304145 65.475621 146.304145 146.239637V749.695855C1024 830.459871 958.524379 896 877.695855 896zM211.476578 619.189719h601.033942v-83.557213H211.476578zM253.129394 535.632506v-436.480484c0-40.420713 32.757163-73.171425 73.158523-73.171425h371.417715c40.401361 0 73.164974 32.750712 73.164974 73.171425V535.632506H253.129394z m165.366259-386.828676h-60.495603V412.796371h60.495603v-263.992541z m123.752148 0H481.745748V412.796371h60.502053v-263.992541z m123.745698 0h-60.502054V412.796371h60.502054v-263.992541zM426.752677 659.133073h170.494646v-39.943354h69.887967v62.546957c0 33.29903-27.003049 60.282726-60.295628 60.282727H417.153887a60.276276 60.276276 0 0 1-60.282727-60.282727v-62.546957h69.881517v39.943354z"  horiz-adv-x="1024" />

    
    <glyph glyph-name="dbsshujukubeifenDBS" unicode="&#59558;" d="M589.417367 895.99963a510.621451 510.621451 0 0 1-271.482709-77.763916l47.13995-75.35392A422.192546 422.192546 0 1 0 193.031793 536.430016l126.279864-47.139949-83.269911 263.569717L0 609.719938l111.48388-41.633956A511.99945 511.99945 0 1 1 589.417367 895.99963zM747.696197 601.805946a375.396597 375.396597 0 0 1-154.149835 29.591968c-120.77387 0-210.923773-46.10795-210.923773-87.053906s89.805904-86.709907 210.235774-86.709907a375.741596 375.741596 0 0 1 154.837834 29.935968c34.409963 16.515982 56.08594 37.849959 56.08594 57.117938 0 19.612979-20.989977 41.634955-56.08594 57.117939z m58.494937-370.579602v91.526902a184.429802 184.429802 0 0 0-45.074952-28.902969 407.396562 407.396562 0 0 0-167.913819-34.408963 333.762641 333.762641 0 0 0-209.891775 59.182936v-92.214901c4.129996-40.257957 92.9029-84.299909 211.267773-84.299909 118.365873 0 206.450778 44.385952 211.612773 84.989909v4.126995zM806.191134 389.850174v93.2469a184.429802 184.429802 0 0 0-45.074952-28.902969 407.396562 407.396562 0 0 0-167.913819-34.408963 333.762641 333.762641 0 0 0-209.891775 59.182936v-92.214901c4.129996-40.257957 92.9029-84.299909 211.267773-84.299909 118.365873 0 206.450778 44.385952 211.612773 84.987908v4.129996z"  horiz-adv-x="1101" />

    
    <glyph glyph-name="shipinwenjian" unicode="&#58944;" d="M650.24 896l256-256v-716.8c0-28.16-23.04-51.2-51.2-51.2H138.24c-28.16 0-51.2 23.04-51.2 51.2V844.8c0 28.16 23.04 51.2 51.2 51.2h512zM650.24 896l256-256h-256V896zM585.728 522.752H282.112c-3.584 0-7.168-0.512-10.752-1.024-20.48-3.584-36.352-22.016-36.352-42.496v-242.176c0-7.168 1.536-14.336 5.632-20.48 9.216-15.872 23.552-23.04 41.472-23.04h304.128c26.624 0 48.128 21.504 48.128 48.128V474.624c-0.512 26.624-22.016 48.128-48.64 48.128z m0 0M795.648 476.16h-18.432c-1.536 0-3.072-0.512-4.096-1.024-37.888-22.528-75.776-45.568-113.664-68.096-1.536-1.024-2.048-2.048-2.048-3.584v-89.088c0-2.048 0.512-2.56 2.048-3.584 36.864-22.016 73.728-44.032 110.08-66.048 3.584-2.048 7.168-3.072 11.264-3.072 5.632 0.512 11.264 0 17.408 0V476.16h-2.56z m0 0"  horiz-adv-x="1024" />

    
    <glyph glyph-name="yinpinwenjian" unicode="&#58945;" d="M665.6 896l256-256v-714.24c0-29.696-24.064-53.76-53.76-53.76h-711.68c-29.696 0-53.76 24.064-53.76 53.76v916.48C102.4 871.936 126.464 896 156.16 896H665.6zM657.408 584.192L419.84 512.512c-28.16-9.216-53.248-37.376-53.248-65.536v-249.856s-18.944 12.288-56.32 6.144c-53.248-9.216-99.84-53.248-99.84-99.84 0-47.104 47.104-71.68 102.912-65.536 56.32 9.216 96.768 50.176 96.768 93.696v240.64c0 18.944 25.088 28.16 25.088 28.16l209.92 65.024s22.016 6.144 22.016-12.288v-200.192s-22.016 12.288-59.392 6.144c-56.32-6.144-102.912-50.176-102.912-93.696s47.104-74.752 102.912-68.608 102.912 50.176 102.912 93.696V546.816c0 28.16-25.088 46.592-53.248 37.376zM665.6 896l256-256h-256V896z"  horiz-adv-x="1024" />

    
    <glyph glyph-name="wenjianjia3" unicode="&#58967;" d="M0 698.88A100.352 100.352 0 0 0 102.4 793.6h309.504L537.6 665.6H0zM921.6-25.6H102.4a102.4 102.4 0 0 0-102.4 97.024V665.6h887.552C944.384 665.6 1024 614.4 1024 557.056v-486.4A102.4 102.4 0 0 0 921.6-25.6z"  horiz-adv-x="1024" />

    
    <glyph glyph-name="ppt" unicode="&#58884;" d="M108.6464 896c-19.456 0-38.2976-19.456-38.2976-38.2976v-947.2c0-19.456 19.456-38.2976 38.2976-38.2976h806.7072c19.456 0 38.2976 19.456 38.2976 38.2976V671.6416L729.856 895.3856H108.6464zM735.744 896v-179.2c0-19.456 19.456-38.2976 38.2976-38.2976h179.6096zM421.0688 197.3248H363.52V570.6752h179.2a117.76 117.76 0 0 0 0-235.52H421.0688z m0 195.2768H542.72a60.3136 60.3136 0 1 1 0 120.6272H421.0688z"  horiz-adv-x="1024" />

    
    </font>
</defs>
</svg>
